<svg xmlns="http://www.w3.org/2000/svg" width="218.3" height="68.9" viewBox="0 0 218.3 68.9"><g fill="#4E4E50"><path d="M5.2 55H1.3v7.9c0 .5 0 1.1.8 1.1 1.8 0 3.7-.1 5.5-.1.6 0 .8-.3.8-.9v-4.7c0-2.1-1.1-3.3-3.2-3.3zm2.6 7.3c0 .3-.5.8-.8.9-1.4.1-2.9.1-4.3 0-.3 0-.7-.5-.7-.8-.1-.9 0-1.9 0-2.9 0-.8.1-1.5 0-2.3-.1-1 .4-1.5 1.3-1.5 1 0 2.1.1 3.1.3 1 .2 1.5 1 1.6 2-.2 1.4-.2 2.8-.2 4.3zM50 54.9c-.1.1-.2.1-.3.2.1 1 .1 2 .2 3 .3 3.9-1.2 5.4-5.1 5-.2 0-.4-.1-.6-.1-1.1 0-1.5-.5-1.4-1.6.1-1.8.2-3.6.1-5.4 0-.4-.3-.8-.5-1.2-.1.1-.2.1-.3.2v2.6c0 .9.1 1.8.1 2.8 0 3.4.2 3.7 3.7 3.6h.4c2.3-.2 3.8-1.4 4.2-3.7.3-1.5.2-3 .1-4.5 0-.3-.4-.6-.6-.9zM98.3 28c-1.4-.1-2.7 0-4.1 0 .1 1.4.1 2.6.2 3.8.1 1.1.9 1.6 1.8 1.8.8.2 1.5 0 2.1-.8-.8 0-1.4.1-2.1 0-1.1-.1-1.5-1-1.6-2 0-.7-.3-1.4.6-1.8 2.6-1.1 5.2.4 5.3 3.2.1 2.4 0 4.8 0 7.2v2.7c.1 0 .2 0 .3.1.1-.2.3-.4.3-.6 0-3.6 0-7.1-.1-10.7.1-1.7-1.2-2.8-2.7-2.9zM71.5 55c-1.4-.1-2.8 0-4.1 0v8.8h6.3c.3 0 .7-.5.7-.8 0-1.7.1-3.4 0-5.1-.2-1.9-1.2-2.8-2.9-2.9zm2.2 7.2c0 .3-.6.9-.9.9-1.4.1-2.8.1-4.2 0-.3 0-.8-.6-.8-.9-.1-.9 0-1.8 0-2.7v-2.4c-.1-.9.4-1.4 1.2-1.4.9 0 1.9 0 2.8.2 1.2.2 1.8 1.1 1.9 2.3.1 1.3.1 2.7 0 4zM87.7 28.7c0-.3-.4-.5-.9-1 .1 1.9.3 3.4.2 4.9 0 2.2-.9 3.2-3.1 3.5-.9.1-1.8 0-2.7 0-.9 0-1.3-.4-1.2-1.3v-5.7c0-.4-.3-.8-.5-1.2-.1.1-.3.1-.4.2.1 1.9.2 3.7.3 5.6 0 3.3.1 3.4 3.5 3.4 2.5 0 4.2-1.2 4.7-3.4.2-1.7.1-3.3.1-5zM132.2 28.8c0-.3-.4-.5-.7-.8v4.6c-.1 2.3-.9 3.2-3.2 3.5-.9.1-1.7 0-2.6 0-1 0-1.4-.5-1.3-1.4.1-1.8.1-3.7.1-5.5 0-.4-.3-.8-.4-1.2-.1.1-.2.1-.3.2v5.4c0 3.5.2 3.6 3.7 3.5.4 0 .8-.1 1.2-.2 1.8-.4 3-1.5 3.3-3.3.3-1.6.3-3.2.2-4.8zM111.3 55c-1.3-.1-2.7 0-4 0v7.6c0 1.1.4 1.4 1.4 1.2 1.2-.1 2.4 0 3.6-.1.7 0 1.3-.1 2-.1V58c0-1.8-1-2.9-3-3zm2.4 7.1c0 .4-.5 1-.8 1-1.4.1-2.9.1-4.3 0-.3 0-.7-.6-.8-.9-.1-.9 0-1.8 0-2.7 0-.8.1-1.6 0-2.4-.1-.9.3-1.4 1.1-1.4 1.1 0 2.3 0 3.4.3 1 .2 1.4 1.1 1.4 2.2 0 1.3.1 2.6 0 3.9zM109.9 35.6c.6-1 .9-2.2 1.3-3.3-.1 0-.1-.1-.2-.1 0-.5 0-1-.1-1.4-.3-1.7-1.6-2.8-3.4-3-1.5-.2-3 .5-3.5 1.9-.8 2-.7 4.1.5 5.9 1.4 2.1 4 2.1 5.4 0zm-2.8.6c-1.8-.1-3.2-1.9-3.2-4.2 0-2.3 1.1-3.4 3.2-3.4 2 0 3.4 1.5 3.4 3.7s-1.5 4-3.4 3.9zM91.1 9.8h7c0-.1.1-.2.1-.3-.6-.6-1.1-1.3-1.7-1.9-.6-.6-.7-1 .1-1.5 1.1-.8 1.5-1.9 1.6-3.2C98.2 2 98 1.4 97 1c.2 2 .5 3.9-1.6 5.4-1-1.6-1.9-3.1-2.8-4.7-.2-.3-.5-.5-.8-.7 0 .4-.1.9 0 1.1 1.4 2 2.9 4 4.4 6 .2.3.5.6.8 1.1-2 .5-4-.6-5.9.6zM6.9 34.5c.2-.7.4-1.4.5-1.9-.1-.7-.1-1.2-.1-1.7-.3-1.7-1.8-3-3.6-3.1-1.6-.1-3.2.8-3.4 2.4-.2 1.3-.2 2.7 0 4 .3 1.8 1.7 2.9 3.2 3 1.5 0 2.7-.9 3.4-2.7zM.3 32.1c0-2.3 1.1-3.5 3.2-3.5s3.4 1.4 3.4 3.6-1.5 4-3.3 4c-1.9 0-3.3-1.8-3.3-4.1zM33.4 55c-1.3-.1-2.7 0-4 0v8.9c.1 0 .2 0 .3.1.1-.4.2-.8.2-1.1v-5.8c0-.4.1-.9.4-1 1.3-.6 2.7-.5 3.9 0 1 .4 1.3 1.4 1.3 2.4v5.4c.1.1.2.1.2.2.2-.3.5-.7.5-1 0-1.8 0-3.6-.1-5.4 0-1.8-1-2.6-2.7-2.7zM86.6 1c-1.3-.1-2.7 0-3.9 0v8.9h.4c.1-.4.2-.9.2-1.3 0-1.8 0-3.7.1-5.5 0-.4.2-1 .5-1.2C86.1.5 89 2.2 89 4.8v5c.1 0 .2.1.3.1.1-.2.4-.5.4-.7 0-1.9.1-3.8-.1-5.6-.3-1.7-1.3-2.5-3-2.6zM139.5 37.5c.4.1.9.2 1.3.2 3.9-.9 6.4-4.9 5.5-8.9-.1-.3-.5-.5-.8-.9-.1.3-.2.4-.2.5 0 .2.1.5.1.7.2 1.9.4 3.9-.8 5.6-.7 1.1-1.3 1.1-1.8-.1-.7-1.7-1.3-3.5-2-5.3-.2-.5-.6-.9-.9-1.4-.2.1-.3.2-.5.3 1.1 2.6 2.2 5.2 3.4 8-1 .3-2.1.7-3.3 1.1.1 0 0 .1 0 .2zM97.4 55c-1.3-.1-2.7 0-3.9 0v8.8c.1 0 .3.1.4.1.1-.4.2-.8.2-1.1v-5.6c0-.7.2-1.2.9-1.3 2.6-.4 5 0 4.8 3.5-.1 1.5 0 3.1 0 4.6.1 0 .2.1.3.1.1-.3.3-.6.3-1v-5c-.1-2.1-1.1-3-3-3.1zM83 55.1h-2.2c-.7 0-1-.3-.9-.9v-2.4c-.1-.1-.3-.2-.4-.4-.1.3-.4.6-.4.9 0 1.2.1 2.3.1 3.6 1.3 0 2.6-.1 3.8 0 1.6.2 2.3 1.6 1.4 3-.3.6-.9 1-1.4 1.4-.6.5-1.2 1-1.7 1.6-.5.6-.6 1.3.2 2 .1-1.6.8-2.6 1.9-3.4.5-.4 1-.8 1.4-1.3.8-.9.8-1.9.4-2.9-.2-.9-1.2-1.2-2.2-1.2zM131.4 55.8c2 .2 4.1.3 6.2.4 0 1.6.1 3.2 0 4.8-.1 1.3-1 2-2.1 2.1h-1.1c.3.4.6.7 1 .8 1.3.3 2.6-.6 2.8-2.2.2-2.1.2-4.3.3-6.5h-7.4c.1.3.2.6.3.6zM144.1 55.1c-.7-.1-1.4-.1-2.2 0-.9.1-1.1-.3-1.1-1.1v-2.2h-.4c-.7 1.3 0 2.7-.2 4.1h3c1 0 2 .2 2.4 1.2.4 1.2-.1 2.1-1 2.9-.7.6-1.5 1.1-2.1 1.8-.6.6-.9 1.4 0 2.5.1-1.8.9-2.8 2.1-3.7.5-.4.9-.8 1.3-1.2.7-.8.8-1.8.4-2.8-.4-1.1-1.2-1.4-2.2-1.5zM43.8 33.4c-.6.5-1.2 1-1.8 1.6-.6.7-.5 1.2.2 1.9.1-1.4.8-2.5 2-3.3.5-.4 1-.8 1.4-1.3.8-.9.8-2 .4-2.9-.4-.9-1.3-1.3-2.3-1.3h-2.2c-.7 0-1-.3-1-1v-2.8c-.4.6-.8.9-.8 1.2 0 1.1.1 2.2.2 3.2 1.3.1 2.6 0 3.9.2 1.6.3 2.2 1.7 1.3 3.1-.3.6-.8 1-1.3 1.4zM59.2 28.3c0 .1-.1.2-.1.4.4.1.7.4 1.1.4 1.4.1 2.9.1 4.3 0 1-.1 1.3.3 1.2 1.2-.1.8 0 1.7 0 2.5 0 2.5-.7 3.2-3.2 3.4 0 0-.1.1-.3.5.7.1 1.4.4 2 .3 1.3-.2 2-1.2 2.1-2.9.1-1.9 0-3.7 0-5.7-2.3-.1-4.7-.1-7.1-.1zM139.7 2c.7.1 1.5.1 2.3.1h3.5v4.2c0 1.1-.4 2.2-1.5 2.6-.5.2-1.2.2-2.2.3.6.3.9.6 1.3.7 1.3.3 2.7-.7 2.8-2.3.2-2.1 0-4.2 0-6.4h-7c.2.5.5.8.8.8zM55.4 55.5c-.3.2-.3.7-.4 1 .9-1.4 3-1.4 4 .1.9 1.3 1.2 2.8 1 4.3-.2 1.4-1.2 2.2-2.6 2.2-.6 0-1.2-.1-2.1-.1.3.3.4.5.6.6 1.3.8 3.1.2 4-1.3 1.1-1.9 1.2-3.9.2-5.8-.9-1.7-3.3-2.2-4.7-1zM55 56.6zM111.9 5.3v4.6c.1 0 .2.1.3.1.2-.3.5-.5.5-.8 0-2-.1-4.1-.3-6.1 0-.5-.3-1-.6-1.3-1-1-4.6-1.1-5.7-.2-.2.1-.2.4-.4.8.8-.2 1.3-.4 1.9-.5 2.9-.7 4.3.4 4.3 3.4zM101.4 9.1c-1.1-.2-1.5.1-1.7.9 1.3-.1 2.6-.1 3.8-.2V6c0-1.1.1-2.2 0-3.3 0-1-.8-1.6-2-1.6s-1.4.1-1.5 1c2.4-.6 2.9-.1 2.9 2.4 0 1.1-.1 2.2 0 3.2.1 1.1-.2 1.6-1.5 1.4zM23.3 34.7c.4.8.8 1.5 1.2 2.3-.1-2-.1-3.8-.2-5.7 0-.5 0-1.1-.1-1.5-.5-1.8-2.2-2.3-3.5-1.1 1.8 0 2.6.4 2.9 1.7.7 3-.6 5.2-3.5 6.1-.1 0-.2.1-.4.1 1 .9 1.7.4 2.3-.1.4-.5.8-1.2 1.3-1.8zM31.8 42c.2-.4.4-.8.4-1.2 0-2.2-.1-4.5-.1-6.7 0-1.6.1-3.1.1-4.7 0-.9-.4-1.4-1.3-1.3 1.5 4.6.1 9.3.9 13.9zM25 55.1c-1-.2-2.1-.1-3.1 0-.4 0-.7.4-1.1.7.1.1.1.2.2.3.4-.1.8-.1 1.1-.2 2.7-.6 4.1.5 4.1 3.2v4.7c.1 0 .3 0 .4.1.1-.3.2-.6.2-.9 0-1.8 0-3.6-.1-5.4.2-1.4-.4-2.2-1.7-2.5zM120.5 55.9c.9.1 1.8.1 2.8 0 1-.1 1.3.3 1.3 1.3-.1 2.1 0 4.3 0 6.4.1 0 .3.1.4.1.1-.4.2-.7.2-1.1 0-1.6.1-3.2-.1-4.8-.2-1.3.2-2.1 1.5-2.3 0 0 0-.1.1-.4h-7.3c.1.4.6.8 1.1.8zM17.3 55.2c-1.1-.2-2.2-.1-3.3 0-.3 0-.6.4-.9.6.1.1.1.2.2.3.5-.1.9-.2 1.4-.3 2.3-.5 3.9.7 3.8 3.1 0 1.1-.1 2.2-.1 3.3 0 .6.1 1.1.1 1.7.4-.2.6-.4.6-.7 0-1.9 0-3.8-.1-5.7.1-1.2-.5-2.1-1.7-2.3zM120.8 4.9c-.1.8 0 1.7 0 2.5v2.4c.1 0 .3.1.4.1.1-.3.4-.5.4-.8 0-2-.1-4-.3-6 0-.5-.3-1.1-.7-1.4-1.1-1-4.5-1-5.6-.1-.2.1-.2.4-.4.8 1-.3 1.7-.6 2.5-.6 2.4-.2 3.9.6 3.7 3.1zM17.5 31.9c0 1-.1 1.9-.1 2.9v2.1c.2 0 .3.1.5.1.1-.3.3-.6.3-.9 0-1.9-.1-3.9-.2-5.8 0-.6-.4-1.3-.8-1.6-1.4-.9-3-.9-4.6-.3-.2.1-.3.3-.4.5.6.2 1.1.1 1.5 0 2.4-.5 3.8.6 3.8 3zM56.5 31.8c0 1-.1 2-.1 3 0 .7.1 1.4.1 2 .1 0 .3 0 .4.1.1-.3.3-.6.3-.8 0-1.9-.1-3.9-.2-5.8 0-1.3-.8-1.9-1.9-2.1-1.4-.2-2.8-.7-4 .7 0 0 0 .1.1.3l1.5-.3c2.3-.5 3.8.6 3.8 2.9zM132.7 1.8c2.2-.4 3.6.8 3.6 3 0 1-.1 2-.1 3 0 .7.1 1.4.1 2.1h.4c.1-.2.3-.4.3-.7 0-2-.1-4.1-.2-6.1-.1-1.2-1-1.9-2-2-1.3-.2-2.7-.6-3.8.7 0 0 0 .1.1.4.5-.2 1.1-.3 1.6-.4zM79.5 9.9c.1 0 .2.1.3.1.1-.3.4-.6.4-.9 0-1.9-.1-3.8-.2-5.7 0-.4-.1-.8-.3-1.1-.9-1.5-5.2-1.6-6.3-.2-.1.1-.1.2-.1.4.8-.2 1.5-.4 2.2-.6 2.5-.5 3.9.6 3.9 3.2.1 1.5.1 3.1.1 4.8zM128.4 13.8V15c.2 0 .3 0 .5.1.1-.4.2-.9.2-1.3 0-2.8-.1-5.6-.1-8.4 0-1.1.1-2.2.1-3.2 0-.9-.5-1.2-1.3-1.1.2.8.6 1.4.6 2.1v10.6zM140.1 13.6c.2-3.1-.6-6.2.1-9.2-1.6 3.4-.2 7.1-1 10.6.2 0 .4.1.6.1.1-.5.3-1 .3-1.5zM131.8 68.9c.4-.3.7-.6.7-.9 0-1.6-.1-3.1-.1-4.7 0-1.7.1-3.3.1-5-1.5 3.4-.4 7-.7 10.6zM52.6 54.9l-.3.3c1.6 1.2 1.4 2.9 1.2 4.5-.2 1.3-.3 2.6-.5 4 .1 0 .3.1.4.1.1-.4.4-.7.4-1.1.2-1.5.3-3.1.5-4.6.1-.5.4-1 .7-1.5-.4-.3-.8-.6-1.1-.9-.5-.3-.9-.6-1.3-.8zM55 56.6 60.3 40.1c.1-2.9-.7-5.9.1-8.8-1.6 3.4-.3 7.1-1.1 10.8 1.3-.5 1-1.3 1-2zM38.2 55.1c1.5 2.8.4 5.8.8 9.1.3-.5.5-.7.5-.9 0-2.4.1-4.9 0-7.3 0-.8-.5-1.2-1.3-.9zM48.9 36.9c.1-.2.3-.4.3-.6V29c0-.8-.5-1-1.3-.8 1.4 2.8.3 5.8 1 8.7zM116.3 55.1c1.5 2.8.4 5.8.8 8.9.3-.3.5-.4.5-.6 0-2.6.1-5.1 0-7.7 0-.6-.6-.9-1.3-.6zM8.9 28.1c1.4 2.8.4 5.8.8 9 .3-.4.5-.6.5-.8 0-2.5.1-4.9 0-7.4 0-.7-.5-1-1.3-.8zM68.8 36.8h.3c.1-.2.3-.4.3-.6v-7.3c0-.7-.5-1.1-1.3-.8 1.5 2.9.5 5.9.7 8.7zM113.4 37.1c.3-.4.5-.6.5-.8 0-2.5.1-4.9 0-7.4 0-.8-.5-1.1-1.3-.8 1.4 2.9.3 5.9.8 9z"/><path d="M83.8 30.8c0-.9.6-2.1-.8-3-.2 2.2.8 4.5-1.8 5.6 1.7-.2 2.5-1 2.6-2.6zM128.4 30.6c0-.8.6-2-.8-2.6-.3 1.9.7 4.1-1.5 5.3 1.5-.3 2.2-1 2.3-2.7zM44.2 60.3c1.8-.3 2.5-1.1 2.6-3.1.1-1.8.1-1.9-1-2.2 0 2 .8 4.2-1.6 5.3zM10.5 55c.2 1.8.4 3.5.6 5.1.3-1.5.3-3.1.2-4.6 0-.2-.6-.4-.8-.5zM35.3 33.1c0-1.4.1-2.9 0-4.3 0-.3-.7-.5-.9-.7.2 1.8.4 3.4.6 5 0-.1.2 0 .3 0zM90.2 55c.2 1.8.4 3.4.6 5 .6-1.4.6-3 .3-4.5-.1-.2-.7-.4-.9-.5zM128.3 54.9c.2 1.8.4 3.5.6 5.1.5-1.5.6-3 .3-4.4-.1-.3-.6-.5-.9-.7zM76.5 54.9c.2 1.9.5 3.5.7 5.2h.3c0-1.4.1-2.9 0-4.3-.1-.4-.7-.6-1-.9zM87.3 54.9c.2 1.9.4 3.5.6 5.1h.3c0-1.4.1-2.8 0-4.3-.1-.3-.6-.5-.9-.8zM114.9 9.9c.2 0 .4.1.5.1.1-1.6.2-3.3.4-5-1.3 1.5-.9 3.2-.9 4.9zM37.3 28.1c.2 1.7.5 3.3.7 4.9 1-2.3.5-4.8-.7-4.9zM106.9 5.2c-.9.8-1.3 3.3-.4 4.8.2-1.7.3-3.3.4-4.8zM73.6 9.9c.2 0 .3 0 .5.1.1-1.6.2-3.2.4-5-1.3 1.6-.8 3.3-.9 4.9zM116.4 33h.4c.3-1.5.3-3 .1-4.5-.1-.3-.6-.4-1.1-.7.3 1.1.5 1.8.6 2.6.1.9 0 1.8 0 2.6zM135.4 26.2c-.4 1.4-.8 2.6-1.2 3.8 1.2-1 1.8-2.6 1.2-3.8zM137.7 26.4c-.2.7-.3 1.3-.5 1.9-.2.6-.4 1.2-.7 2 1.4-1.6 1.9-3 1.2-3.9zM76.5 35.6c-.2.2-.6.4-.6.7 0 .2.3.5.6 1 .3-.5.6-.7.6-1-.1-.2-.4-.4-.6-.7z"/><circle cx="188.7" cy="14.4" r="14.4"/><path d="M218.3 19c-15.3 1.1-27.7 12.8-29.9 27.8-2.2-15-14.6-26.7-29.9-27.8 10.3 8.3 16.9 21 16.9 35.2 0 3.7-.5 7.3-1.3 10.8H202.7c-.8-3.5-1.3-7.1-1.3-10.8 0-14.2 6.6-26.9 16.9-35.2z"/></g></svg>