<svg xmlns="http://www.w3.org/2000/svg" width="246.8" height="45.6" viewBox="0 0 246.8 45.6"><path fill="#4E4E50" d="M229.8 7.5c.2.1.5.1.8 0 .5-.3.7-1 .8-1.6.4-2.3-.4-4.4-1.2-5.9-.3.5-.5 1.1-.8 1.7-.4 1.1-.7 2.7-.4 4.2.1.7.3 1.3.8 1.6zM246.7 12.4c-.2-1.4-.7-2.6-1.2-3.6-.6 1-1 2.2-1.2 3.6-.1.7-.1 1.6 0 2.2.1.7.3 1.3.8 1.6.2.2.6.2.9 0 .5-.3.7-1 .8-1.6 0-.6 0-1.5-.1-2.2zM214.5 16.4c.3.2.7.1 1-.1.2-.2.4-.5.5-.9.2-.7.3-1.6.2-2.4-.1-1.6-.6-3-1.3-4.1 0 0-.1.1-.1.2l-.3.6c-.6 1.4-1.1 3.2-.8 5.1.1.6.4 1.3.8 1.6zM235.9 23.4c.5.6 1.5.9 2.6.9s2-.3 2.4-1.1c.4-.7.4-1.8.4-3.1h-1.8c0 1.3 0 2.7-1.3 2.6-1.2-.1-1-1.8-1-3.2v-5.7c0-.9.1-1.9.7-2.2.3-.1.6-.1.9 0 .9.2.8 1.3.8 2.4h1.8v-1.7c-.1-1.5-1.1-2.3-2.8-2.3-.3 0-.6 0-.8.1-1.7.3-2.4 1.6-2.4 3.6v6.9c-.2 1.3 0 2.2.5 2.8zM221.1 24.2c.9.2 1.9 0 2.6-.3.7-.3 1.1-.9 1.3-1.7.2-.8.2-1.9.2-2.9v-9.1h-1.9V21.1c0 .7-.2 1.3-.7 1.5-.6.3-1.3-.1-1.5-.5-.2-.5-.2-1.3-.2-2h-1.8c0 1.1-.1 2.1.2 2.8.3.8.9 1.1 1.8 1.3zM230.4 24.1c1.1-.1 1.9-.3 2.4-1 .5-.6.6-1.6.7-2.7v-3.3-3.3c0-1-.1-2.1-.6-2.7-.5-.7-1.4-.8-2.5-.9H227v13.9c1.2 0 2.3.1 3.4 0zM229 11.8c1-.1 2 0 2.3.6.3.5.3 1.4.3 2.3v5.2c0 1.3-.1 2.5-1.3 2.6-.4.1-.9 0-1.3 0V11.8z"/><path fill="#4E4E50" d="M246.3 18.2c-.8 0-1.7-.1-1.9 1.1-1.5 6.2-7.3 9.7-14.2 9.7-6.9 0-12.6-3.5-14.2-9.7-.2-1.2-1.1-1.1-1.9-1.1-.3 0-.2.3-.2.5 1.3 7.8 8.1 13.7 16.3 13.7 8.2 0 15-5.9 16.3-13.7 0-.2.1-.5-.2-.5zM207.3 2.5c-.3 0-.6.3-.6.6V45c0 .3.3.6.6.6s.6-.3.6-.6V3.1c0-.4-.2-.6-.6-.6zM74.6 8.8c0-.5-.3-.7-.8-.7h-10V3.2c0-.6-.2-.9-.7-.9h-2.6c-.6 0-.8.3-.8.8v8.1c0 .5.3.8.8.8h9L65 25.3c-.1.4-.2.6-.2.8 0 .3.1.5.4.5h3c.4 0 .7-.3 1-1l5.5-16.1c-.2-.3-.1-.5-.1-.7zM92.8 25.8c0-.2-.1-.4-.3-.7l-5-6.9 1.7-1.5c1.1-1 1.8-2.4 2.2-4.2l.6-3.2c0-.3.1-.6.1-.7 0-.3-.3-.5-.9-.5h-2.7c-.4 0-.7.3-.8.9l-1 5.2c-.2 1.2-.4 1.8-.7 2l-5.6-7.4c-.4-.5-.7-.7-1.1-.7h-3.2c-.3 0-.5.2-.5.7 0 .2.1.4.4.7l4.3 5.7-1.8 1.7c-.9.8-1.5 2.2-1.9 4.2l-.8 4.4v.2c0 .6.3.9.8.9H79c.5 0 .8-.3 1-.9l1.2-6.1c.3-1.4.5-2.2.6-2.2l6 8.4c.3.4.4.6.5.6.2.2.4.2.8.2h3.2c.3-.1.5-.3.5-.8zM94.3 12c1.5-.2 3-.2 4.7-.2 1.3 0 2.2.1 2.6.3.8.3 1.1 1.1 1.1 2.2v11.4c0 .6.3.9.8.9h2.6c.3 0 .5 0 .6-.1.1-.1.2-.3.2-.8V14c0-2.2-.6-3.8-1.9-4.8-1.1-.8-2.7-1.2-5-1.2-2.8 0-4.8.2-5.9.5-.3.1-.5.2-.5.2-.1.1-.1.3-.1.6v1.8c.1.7.4.9.8.9zM128.9 8.1H126c-.4 0-.7.3-.8.9l-2.5 11.6c-.4 1.8-1.5 2.7-3.5 2.7h-1.9c-1.4 0-2.2-.6-2.5-1.8l-.2-1.2 2.9-1.6c1.2-.7 2-1.9 2.4-3.6l1.1-5.8c.1-.5.1-.7.1-.8 0-.2-.3-.4-.6-.4h-2.8c-.4 0-.7.3-.8 1l-1 6.1c-.2 1.3-.7 2.1-1.6 2.5l-.2.1-1.5-8.6c-.1-.7-.4-1-.8-1h-3c-.4 0-.6.4-.5 1.1l2.2 11.5c.4 2.1 1.1 3.6 2.2 4.6 1.1.9 2.6 1.4 4.5 1.4h2.2c4.2 0 6.7-2.2 7.6-6.5l2.3-11.1c.2-.7.1-1.1-.4-1.1zM134.6 8.1H132c-.5 0-.8.2-.8.7v9.4c0 .5.3.8.8.8h2.7c.3 0 .5 0 .6-.1.1-.1.1-.3.1-.7V9c0-.4 0-.6-.1-.7s-.3-.2-.7-.2zM154.9 8.1c-1.4 0-2.4.1-3 .3-.3.1-.5.2-.5.3-.1.1-.1.3-.1.6v1.9c0 .3 0 .5.1.6.1.1.2.1.5.1l1.5-.1c1.8 0 2.6.7 2.6 2v5.9c0 1.5-.2 2.4-.7 2.8-.5.4-1.5.6-3.1.6-1.5 0-2.7 0-3.5-.2v-14c0-.5-.3-.8-.8-.8h-2.6c-.3 0-.5.1-.6.2-.1.1-.2.3-.2.6v16.5c0 .5.3.7.8.8 1.9.3 4.1.5 6.8.5 2.8 0 4.8-.5 6-1.5 1.3-1.1 2-3 2-5.7v-5.2c0-4.1-1.7-6.2-5.2-6.2zM164.7 8.1c-1.2 0-2 .1-2.4.3-.3.1-.5.3-.5.3-.1.1-.1.3-.1.6v1.8c0 .5.2.7.7.7.5-.1.9-.1 1.3-.1.8 0 1.4.1 1.6.4.3.3.4.8.4 1.6v9.1H162c-.3 0-.4 0-.6.1-.1.1-.2.3-.2.7v2.2c0 .3 0 .5.1.6.1.1.3.2.6.2h7c.4 0 .7-.1.8-.2.1-.1.2-.4.2-.8V13.7c0-2-.4-3.4-1.3-4.2-.7-.9-2.1-1.4-3.9-1.4zM176.6 9c0-.4 0-.6-.1-.7-.1-.1-.3-.1-.7-.1h-2.7c-.5 0-.8.2-.8.7v9.4c0 .5.3.8.8.8h2.7c.3 0 .5 0 .6-.1.1-.1.1-.3.1-.7V9zM182.6 8.1h-2.7c-.5 0-.8.3-.8.9v16.6c0 .6.3.9.8.9h2.6c.3 0 .5 0 .6-.1.1-.1.2-.3.2-.8V9.1c0-.4 0-.6-.1-.7-.1-.2-.3-.3-.6-.3zM185.1 14.1c.2 0 .5-.2.8-.5 1.5-1.6 2.5-3.3 2.9-4.9l.6-2.4c.1-.7-.1-1-.7-1h-1.3c-.6 0-1 .3-1.1.9l-1.5 7.3c-.1.4 0 .6.3.6zM194.4 8.1c-1.4 0-2.5.1-3.3.4-.4.1-.6.4-.6.8v1.8c0 .5.3.7.8.7.3 0 .9-.1 1.8-.1 1 0 1.7.1 2 .3.4.2.6.7.6 1.5v4.2c0 .7-.3 1.4-.8 2.1-.3.4-1.1 1-2.2 1.7-.7.5-1.6 1-2.6 1.4-.3.2-.5.4-.5.8v2.5c0 .4.2.6.7.6.2 0 .6-.1 1.1-.2.9-.3 1.8-.8 2.5-1.5.3-.3.6-.9.8-1.6l.4-1.5c.1-.3.2-.4.5-.4.2 0 .3.1.3.3v3.8c0 .5.2.8.5.8h2.9c.4 0 .5-.3.5-.9V13.1c0-1.7-.4-3-1.3-3.9-.8-.7-2.1-1.1-4.1-1.1zM62 32c-.4-.2-1.2-.3-2.2-.3-.6 0-1.5.1-2.9.2-.2 0-.3.1-.3.2v.5c0 .1.1.2.2.1h.4v5.4c0 .2.1.2.2.2h5c.1 0 .2-.1.2-.2v-4.8c.1-.6-.1-1-.6-1.3zm-.4 5.5h-3.3v-4.9h2.6c.5.1.7.4.7.8v4.1zM64.8 31.7h-.6c-.1 0-.2.1-.2.2v3.4c0 .2.1.2.2.2h.6c.1 0 .2-.1.2-.2V32c0-.2 0-.3-.2-.3zM67.2 31.7c-.4 0-.7 0-.9.1-.1 0-.2.1-.2.3v.4c0 .1.1.2.3.1h.5c.6 0 .9.2.9.7v4.2h-1.7c-.1 0-.2.1-.2.2v.5c0 .1.1.2.2.2h2.6c.1 0 .2-.1.2-.2v-4.7c0-.7-.1-1.1-.4-1.4-.3-.2-.8-.4-1.3-.4zM71.1 34.4h-.3c-.1 0-.2.1-.2.2-.2.4-.3.9-.3 1.3v5c0 .2.1.2.2.2h.6c.1 0 .2-.1.2-.2v-6.4s0-.1-.2-.1zM73.9 31.7h-3.7c-.1 0-.2.1-.2.2v.5c0 .1.1.2.2.2h3.6c.3 0 .6.1.8.3.2.2.3.4.3.7 0 .2-.1.5-.2.7l-1.8 3.8c-.1.2 0 .3.1.3h.7c.1 0 .2-.1.4-.3l1.5-3.3c.2-.4.3-.8.3-1.2 0-.6-.2-1-.6-1.4-.4-.3-.8-.5-1.4-.5zM79.9 31.7h-3.2c-.1 0-.2.1-.2.2v.5c0 .2.1.2.2.2h1.4c-.4.6-.7 1.2-.6 1.9 0 .3 0 .6.1 1.1l.5 2.6c0 .1.1.2.2.2h.7c.1 0 .2-.1.1-.3l-.5-2.8c-.1-.5-.2-.9-.2-1.1 0-.4 0-.8.1-1 .1-.3.4-.5.8-.6l.6-.1c.1 0 .2-.1.2-.2V32c0-.2 0-.3-.2-.3zM85.6 32c-.4-.2-1.1-.3-2.1-.3-.9 0-1.6.1-2.3.2-.2.1-.3.1-.3.3v.5c0 .1.1.2.3.1 1-.1 1.7-.1 2-.1.8 0 1.4 0 1.6.1.3.1.4.4.4.8v4.7c0 .2.1.2.2.2h.6c.1 0 .2-.1.2-.2v-4.8c.2-.8-.1-1.3-.6-1.5zM82 34.6h-.4c-.1 0-.2.1-.2.2-.2.4-.3.8-.3 1.1v2.3c0 .2.1.2.2.2h.6c.1 0 .2-.1.2-.2v-3.4c0-.2 0-.2-.1-.2zM90.9 31.7h-.6c-.1 0-.2.1-.2.3v9c0 .2.1.2.2.2h.6c.1 0 .2-.1.2-.2v-9c0-.2-.1-.3-.2-.3zM97.3 31.7h-.7c-.1 0-.2.1-.2.2l-.3 3c-.1.6-.2 1-.3 1.3-.2.3-.4.5-.7.8-.3.2-.5.3-.7.4 0-.6 0-1.2-.1-1.7l-1-3.8c0-.1-.1-.2-.3-.2h-.7c-.3 0-.3.1-.3.3l1.6 5.7c-.3.2-.9.5-1.7.8-.1 0-.1.1-.1.2v.2l.1.3c0 .1.1.1.1.1s.1 0 .3-.1c.3-.1.8-.3 1.4-.6.7-.3 1.2-.6 1.6-.8.5-.4.9-.8 1.2-1.2.3-.4.5-1 .5-1.7l.4-3c.1-.1 0-.2-.1-.2zM101.9 31.7c-.6 0-1 0-1.2.1-.3.1-.7.3-1 .7-.2-.2-.3-.4-.5-.5l-.2-.3c-.1-.1-.1-.1-.2-.1s-.1 0-.2.1l-.3.3c-.1.1-.2.2-.2.3l.2.2.3.3c.1.2.2.3.2.5v4.8c0 .2.1.2.2.2h.6c.1 0 .2-.1.2-.2v-5c0-.1.1-.2.2-.3.2-.1.6-.2 1.1-.2h.6c.5 0 .9.1 1.1.3.3.2.4.5.4 1v2.3c0 .9-.4 1.3-1.3 1.3h-.9c-.2 0-.3 0-.3.2v.4c0 .1.1.2.2.2.3.1.7.2 1.2.2.6 0 1.1-.2 1.5-.6.4-.4.6-1 .6-1.7v-2.3c.1-1.5-.7-2.2-2.3-2.2zM110.1 31.7h-3.9v-1.9c0-.2-.1-.2-.2-.2h-.8V32.4c0 .2.1.2.2.2h3.7l-2 5.5c-.1.2 0 .3.1.3h.7c.1 0 .2-.1.3-.3l2.1-5.8v-.2c0-.3-.1-.4-.2-.4zM118.9 32.1c-.4-.2-1.1-.4-2.2-.4s-2 0-2.8.1c-.2 0-.3.1-.3.2v.5c0 .1.1.2.2.2h.6v4.8h-1.2c-.1 0-.2.1-.2.2v.5c0 .1.1.2.2.2h2c.2 0 .2-.1.2-.2v-5.6h1.3c.7 0 1.2.1 1.4.2.2.1.3.4.3.8v4.5c0 .2.1.2.2.2h.6c.1 0 .2-.1.2-.2v-4.4c.1-.8-.1-1.3-.5-1.6zM121.7 31.7h-.7c-.1 0-.2.1-.2.2v3.4c0 .2.1.2.2.2h.6c.1 0 .2-.1.2-.2V32c.1-.2 0-.3-.1-.3zM128.5 32.1c-.4-.2-1.1-.4-2.2-.4s-2 0-2.8.1c-.2 0-.3.1-.3.2v.5c0 .1.1.2.2.2h.6v4.8h-1.2c-.1 0-.2.1-.2.2v.5c0 .1.1.2.2.2h2c.2 0 .2-.1.2-.2v-5.6h1.3c.7 0 1.2.1 1.4.2.2.1.3.4.3.8v4.5c0 .2.1.2.2.2h.6c.1 0 .2-.1.2-.2v-4.4c.1-.8-.1-1.3-.5-1.6zM132.3 31.7c-.9 0-1.6.1-2 .2-.1 0-.2.1-.2.3v.4c0 .1.1.2.3.2.5-.1 1.1-.1 1.7-.1.7 0 1.2.1 1.4.3.2.2.3.4.3.8v4.6c0 .1.1.2.2.2h.6c.1 0 .2-.1.2-.2v-4.5c0-1.6-.8-2.2-2.5-2.2zM141.1 37.5h-.5v-3.9c0-1.3-.8-1.9-2.3-1.9-1 0-1.8.1-2.2.2-.1 0-.1.1-.1.2v.5c0 .1.1.2.2.1.6-.1 1.2-.1 1.7-.1.6 0 .9 0 1.1.1.4.1.6.4.6.8v4H136c-.1 0-.2.1-.2.2v.5c0 .1.1.2.2.2h5.1c.1 0 .2-.1.2-.2v-.5c0-.1 0-.2-.2-.2zM147.2 32.1c-.4-.3-1.1-.4-2.1-.4s-1.9.1-2.6.2c-.1 0-.2.1-.2.3v6.1c0 .1.1.2.2.2h.6c.1 0 .2-.1.2-.2v-5.5c.4-.1.9-.1 1.5-.1.7 0 1.2.1 1.4.2.3.1.4.4.4.7v4.7c0 .2.1.2.2.2h.6c.1 0 .2-.1.2-.2v-4.7c.2-.8 0-1.2-.4-1.5zM155.9 32c-.4-.2-1.1-.3-2.1-.3-.9 0-1.6.1-2.3.2-.2.1-.3.1-.3.3v.5c0 .1.1.2.3.1 1-.1 1.7-.1 2-.1.8 0 1.4 0 1.6.1.3.1.4.4.4.8v4.7c0 .2.1.2.2.2h.6c.1 0 .2-.1.2-.2v-4.8c.2-.8-.1-1.3-.6-1.5zM152.3 34.6h-.4c-.1 0-.2.1-.2.2-.2.4-.3.8-.3 1.1v2.3c0 .2.1.2.2.2h.6c.1 0 .2-.1.2-.2v-3.4c0-.2 0-.2-.1-.2zM158.8 31.7h-.6c-.1 0-.2.1-.2.2v3.4c0 .2.1.2.2.2h.6c.1 0 .2-.1.2-.2V32c0-.2-.1-.3-.2-.3zM161.1 31.7h-.6c-.1 0-.2.1-.2.2v3.4c0 .2.1.2.2.2h.6c.1 0 .2-.1.2-.2V32c0-.2-.1-.3-.2-.3zM169.4 31.7h-.7c-.1 0-.2.1-.2.2l-.9 4.5c-.2.8-.7 1.2-1.6 1.2h-.6c-.7 0-1.1-.3-1.3-1v-.3l.8-.3c.6-.3 1-.8 1.2-1.5l.4-2.6c0-.2 0-.2-.2-.2h-.7c-.1 0-.2.1-.3.2l-.4 2.5c-.1.6-.4 1-.8 1.1l-.3.1-.6-3.8c0-.1-.1-.2-.3-.2h-.7c-.1 0-.2.1-.2.2l.7 4.5c.1.7.4 1.3.8 1.6.4.3.9.4 1.6.4h.4c.8 0 1.4-.1 1.8-.4.5-.3.8-.9 1-1.7l.9-4.3c.4-.1.3-.2.2-.2zM175.6 31.7h-.7c-.1 0-.2.1-.2.2l-.3 3c-.1.6-.2 1-.3 1.3-.2.3-.4.5-.7.8-.3.2-.5.3-.7.4 0-.6 0-1.2-.1-1.7l-1-3.8c0-.1-.1-.2-.3-.2h-.7c-.2 0-.2.1-.2.3l1.6 5.7c-.3.2-.9.5-1.7.8-.1 0-.1.1-.1.2v.2l.1.3c0 .1.1.1.1.1s.1 0 .3-.1c.3-.1.8-.3 1.4-.6.7-.3 1.2-.6 1.6-.8.5-.4.9-.8 1.2-1.2.3-.4.5-1 .5-1.7l.4-3c-.1-.1-.1-.2-.2-.2zM181.8 37.5h-.5v-3.9c0-1.3-.8-1.9-2.3-1.9-1 0-1.8.1-2.2.2-.1 0-.1.1-.1.2v.5c0 .1.1.2.2.1.6-.1 1.2-.1 1.7-.1.6 0 .9 0 1.1.1.4.1.6.4.6.8v4h-3.6c-.1 0-.2.1-.2.2v.5c0 .1.1.2.2.2h5.1c.1 0 .2-.1.2-.2v-.5c0-.1-.1-.2-.2-.2zM189.9 31.7h-5c-.1 0-.2.1-.2.2v.5c0 .1.1.2.2.2h3.1v5.5c0 .2.1.2.2.2h.6c.1 0 .2-.1.2-.2v-5.5l.8-.1c.1 0 .2-.1.2-.2v-.4c.1-.1 0-.2-.1-.2zM196 32.1c-.4-.3-1.1-.4-2.1-.4s-1.9.1-2.6.2c-.1 0-.2.1-.2.3v6.1c0 .1.1.2.2.2h.6c.1 0 .2-.1.2-.2v-5.5c.4-.1.9-.1 1.5-.1.7 0 1.2.1 1.4.2.3.1.4.4.4.7v4.7c0 .2.1.2.2.2h.6c.1 0 .2-.1.2-.2v-4.7c.2-.8 0-1.2-.4-1.5zM198.8 31.7h-.6c-.1 0-.2.1-.2.2v3.4c0 .2.1.2.2.2h.6c.1 0 .2-.1.2-.2V32c0-.2-.1-.3-.2-.3zM13.6 8.1H2.8V2.9c0-.4-.2-.6-.6-.6H.6c-.2 0-.3 0-.4.1-.2.1-.2.2-.2.5V10c0 .4.2.7.5.7h10.2L5 25.8c-.2.5-.1.7.3.7h2c.3 0 .5-.3.7-1l6-16c.1-.2.1-.4.1-.7 0-.4-.2-.7-.5-.7zM35.2 8.1h-2c-.3 0-.5.1-.5.4L30.2 21c-.4 2.2-1.9 3.2-4.4 3.2H24c-2 0-3.2-.9-3.5-2.7l-.1-.8 2.2-.9c1.8-.7 2.8-2.1 3.2-4.1l1.2-7c.1-.4-.1-.6-.4-.6h-1.8c-.4 0-.6.2-.7.7l-1 7c-.3 1.7-1 2.7-2.3 3.1l-.7.2-1.5-10.4c-.1-.4-.3-.6-.7-.6H16c-.4 0-.5.2-.4.7l2 12.4c.3 2 1 3.5 2.1 4.3 1 .8 2.5 1.2 4.4 1.2h1.2c2.2 0 3.9-.4 5-1.2 1.4-.9 2.3-2.5 2.8-4.8l2.4-12c.2-.3.1-.6-.3-.6zM47.3 18.4l1.6-1.6c1.3-1.3 2.2-2.8 2.5-4.6l.8-3.4c.1-.4 0-.7-.4-.7h-1.9c-.4 0-.6.1-.6.4l-.9 4.1c-.3 1.1-.6 2.1-1.1 3.1-.4.7-.7 1.1-1 1.3h-.1l-6.3-8.5c-.2-.3-.5-.4-.8-.4h-2.2c-.1 0-.2.1-.3.3-.1.2 0 .3.1.4l4.9 6.4-1.6 1.6c-1.1 1.1-1.8 2.6-2.3 4.5L36.6 26c-.1.4 0 .6.3.6h2c.3 0 .5-.2.5-.5l1.1-4.4c.4-1.7.7-2.9.9-3.3.3-.9.7-1.5 1.1-1.8l7.3 9.6c.2.3.4.4.7.4h2.2c.2 0 .3-.1.3-.2.1-.2 0-.3-.1-.5l-5.6-7.5z"/><path fill-rule="evenodd" clip-rule="evenodd" fill="#4E4E50" d="M233.6 33.5c-2.7.5-4.1.5-6.9 0-.4-.1-.7.1-.8.4-.1.3.1 1.2.5 1.3 3 .5 4.5.5 7.4 0 .4-.1.6-.9.5-1.3.1-.3-.3-.5-.7-.4zM235.7 36.5c-4.4.4-6.6.4-10.9 0-.4 0-.7.2-.7.5s.2 1.2.6 1.2c4.5.4 6.8.4 11.3 0 .4 0 .6-.9.6-1.2-.2-.3-.5-.5-.9-.5zM238.8 39.5c-6.8.6-10.3.6-17.1 0-.4 0-.7.2-.7.5s.2 1.2.6 1.2c7 .6 10.5.6 17.4 0 .4 0 .6-.9.6-1.2-.1-.3-.4-.5-.8-.5z"/></svg>