<svg xmlns="http://www.w3.org/2000/svg" width="96.8" height="116.2" viewBox="0 0 96.8 116.2"><g fill="#4E4E50"><path opacity=".25" d="M65 90.9c4-2.7 7.4-6.1 10.4-9.9.1-.1.2-.2.3-.4.2 3.8.4 7.5.7 11.3.1 1.5.1 2.9.3 4.4.1 1.2.8 1.8 1.9 1.9.3 0 .5.1.8.1 1.8.2 3.4-.4 5-1 3-1.2 5.4-3.1 6.7-6.2.2-.6.5-1.1.7-1.7 1.2-3.8 1.5-7.8 1-11.8-.2-1.6-.5-3.2-1.3-4.7-.7-1.3-1.8-2-3.4-2h-6.3c1.2-2.4 2.3-4.8 3.3-7.4 2.4-6.3 4.1-12.7 5-19.4.5-3.4.7-6.8.6-10.3-.1-3.8-.5-7.5-1.8-11.1-1.8-5.1-5.3-8.4-10.3-10.3-2.7-1-5.5-1.5-8.3-2.1-4.4-.9-8.7-1.9-13.1-2.9-7-1.6-13.9-3.2-20.9-4.8-.1 0-.3 0-.4-.1C34.6 1.7 33.3.8 32 0h64.1c.5 0 .6.1.6.6v103c0 .5-.1.6-.6.6H.6c-.7 0-.7 0-.7-.7C0 69.3 0 35 0 .7 0-.1-.1 0 .7 0h12c.2 0 .4-.1.6.1-.2.2-.4.5-.5.7-1.5 2-2.8 4.1-3.4 6.5-.3 1.4-.4 2.7.2 4 .3.6.7 1.1 1.3 1.4 3.5 2.1 6.9 4.2 10.4 6.3.5.3.5.3.2.8-1.3 1.7-2.6 3.5-4 5.2-1.5 2-2.4 4-2.9 6.3-.7 3.3-1.1 6.7-1.6 10-.6 3.7-1.1 7.4-1.7 11.1-.6 4.1-1.3 8.3-1.9 12.4-.3 2-.6 4.1-.9 6.1H5.4c-.6 0-.9.2-1.2.7-.3.5-.3 1.1-.4 1.7-.1 1-.1 2.1.3 3.1.2.5.6.8 1.2.8h2.1c-.3 1.7-.5 3.4-.8 5.2-.2 1.5-.5 2.9-.6 4.4-.2 2.2.6 4.2 1.7 6.1.4.7.9 1.2 1.7 1.5 1.7.8 3.4 1.5 5.1 2.1.1 1 .4 1.5 1.3 1.7 1.1.3 2.2.3 3.3-.4 1.7.4 3.4.6 5.1.8 2.8.3 5.6.4 8.4.3 5.6-.1 11.1-.7 16.6-1.8.3.4.5.8 1.1.8h10.1c2.3 0 3.9-1.4 4.4-3.6.1-1.1.2-2.3.2-3.4z"/><path opacity=".25" d="M49.6 75.3c-3 1.6-6.1 2.8-9.4 3.6v-.8c0-1.4-.1-2.9-.5-4.3-.6-1.8-1.7-2.6-3.6-2.8-1.6-.1-3.2 0-4.8-.1L34 51.4c.9-6.7 1.8-13.5 2.8-20.2.2-1.7.5-3.4.7-5.1.1-.4.3-.4.6-.4 5.9 1.4 11.8 2.7 17.7 4.1 1.9.5 3.9.8 5.8 1.4 2.8.9 5 2.4 6.4 5.1.8 1.6 1.2 3.3 1.3 5.1.2 3.6-.5 7-1.4 10.4-.7 2.6-1.5 5.2-2.7 7.7-1.9 3.9-4.6 7.3-7.9 10.2-.2.2-.5.4-.7.6-1.7-.1-3.3-.3-4.9-.6-1.7-.3-2.2.1-2.2 1.8 0 1.4.1 2.6.1 3.8z"/><path d="M81.8 71h6.3c1.5 0 2.7.7 3.4 2 .8 1.5 1.1 3 1.3 4.7.5 4 .2 7.9-1 11.8-.2.6-.4 1.2-.7 1.7-1.3 3.1-3.7 5-6.7 6.2-1.6.6-3.3 1.2-5 1-.3 0-.5-.1-.8-.1-1.2-.2-1.8-.7-1.9-1.9-.2-1.5-.2-2.9-.3-4.4-.2-3.8-.5-7.5-.7-11.3-.1-1.3.4-2.5.8-3.6.1-.3.1-.5-.3-.6-.7-.2-1.3-.6-2-.8-.5-.2-.8-.6-.8-1.1-.1-1.6.4-3.1 1.4-4.3.4-.6.9-.6 1.5-.3.3.1.6.2.9.4 1.5.7 3 .6 4.6.6zm1.6 6.3h-2.5c-.3 0-.4.1-.4.4.1 1.1.2 2.1.2 3.2.3 3.6.5 7.3.8 10.9.1.7.1.8.8.6 1.3-.3 2.4-1.2 3.3-2.2 2.5-2.8 3.1-6.1 2.7-9.7-.1-.7-.2-1.4-.5-2-.4-.8-1.1-1.2-2-1.3-.8.1-1.6.1-2.4.1zM49.6 75.3v-3.6c0-1.7.5-2.1 2.2-1.8 1.6.3 3.3.5 4.9.6 1.2.2 2.4.4 3.7.5 2.9.1 3.9 2.1 4.1 4.3.2 1.9.2 3.9.2 5.8.1 3.3.2 6.6.3 9.8 0 1.1-.1 2.3-.3 3.4-.5 2.3-2.1 3.6-4.4 3.6H50.2c-.6 0-.9-.4-1.1-.8-.4-1.4-.5-2.8-.1-4.3.2-1 .6-1.3 1.6-1.3h9c.4 0 .5-.1.5-.5-.1-3.8-.2-7.6-.3-11.3 0-.6-.1-1.2-.3-1.8-.2-.5-.6-.9-1.2-.9-1.4-.2-2.8-.3-4.2-.5-.2 0-.3.1-.3.3 0 1.6.1 3.2.1 4.8 0 .7.4 1 1.1 1h1.1c.5 0 .9.2 1 .7.5 1.4.5 2.8 0 4.2-.2.4-.5.6-1 .6h-4.4c-1 0-1.7-.5-1.7-1.6-.1-2.1-.2-4.3-.2-6.4-.1-1.6-.2-3.2-.2-4.8zM7.4 77.3H5.3c-.6 0-1-.3-1.2-.8-.4-1-.4-2-.3-3.1 0-.6.1-1.2.4-1.7.2-.5.5-.7 1.1-.7H13c.8 0 1.5 0 2.3.2 2.3.5 3.4 2.1 4 4.2.3 1 .3 2.1.3 3.2v17.9c0 .5-.1 1-.5 1.4-1 .6-2.1.6-3.3.4-.9-.2-1.2-.7-1.3-1.7V96 82.4c0-.9.1-1.9 0-2.8-.2-1.4-.8-2.1-2.2-2.2-1.6-.2-3.2-.1-4.9-.1zM31.3 71c1.6.1 3.2 0 4.8.1 1.9.1 3 1 3.6 2.8.4 1.4.5 2.8.5 4.3v.8c-.3 2-.8 4-1.6 5.9-.8 1.9-1.7 3.7-2.8 5.4-.2.3-.5.4-.8.2-1.3-.6-2.4-1.5-2.8-2.9-.1-.4 0-.9.2-1.3.7-1.3 1.4-2.6 2.1-4 .4-.8.8-1.7.9-2.7.2-1.3-.5-2.2-1.7-2.2h-4.1c-.8 0-1.1-.2-1.3-.9-.4-1-.4-2.1-.3-3.2 0-.5.1-1 .4-1.5.2-.5.6-.7 1.1-.7.6-.1 1.2-.1 1.8-.1zM16.9 114.4h-.5c-.6 0-.7-.2-.7-.7 0-.5.3-.6.7-.6.4.1.5-.1.5-.5-.1-.6-.1-1.3-.2-1.9 0-.3-.1-.6-.5-.6-.3 0-.7.1-.8.6-.1 1.1-.3 2.2-.5 3.3-.1.5-.3.6-.8.5-.5-.1-.3-.4-.3-.7.2-1 .3-2 .5-3 .1-.5 0-.8-.4-1-.3-.2-.5-.4-.3-.8.3-.5.5-.6.9-.2.5.4.9.5 1.5.2.7-.3 1.2-.1 1.5.7.2.6.2 1.3.3 2 .1.7.1 1.4.2 2 .1.6 0 .7-.6.7h-.5zM1.2 110.4c-.7-.1-.8-.2-.7-.8 0-.4.2-.6.6-.5h2.4c.7 0 1.2.4 1.2 1.1v3.9c0 .4-.3.4-.6.4s-.6-.1-.6-.5v-2.9c0-.3 0-.6-.4-.7-.5-.1-.9 0-1.1.4-.3.6-.2 1.2-.1 1.8.1.4.2.8.3 1.1.1.5-.1.7-.6.7h-1c-.5 0-.5-.3-.5-.6s0-.7.5-.6c.4 0 .4-.1.3-.4-.4-.9-.3-1.7.3-2.4zM88 114.4h-.5c-.6 0-.9-.4-.6-1 .1-.3.4-.3.6-.2.4.1.6-.1.5-.5-.1-.6-.1-1.2-.2-1.8 0-.3-.1-.7-.5-.6-.4 0-.7.1-.8.6-.1 1.1-.3 2.1-.4 3.2-.1.5-.6.7-1 .5-.2-.1-.1-.3-.1-.5.2-1 .3-2.1.6-3.1.1-.5 0-.8-.4-1-.5-.2-.4-.6-.2-.9.2-.3.5-.5.8-.2l.3.3c.3.3.5.3.9.1 1.2-.5 1.7-.1 1.9 1.1.1 1.1.2 2.2.3 3.4.1.8 0 .8-.7.8-.2-.2-.4-.2-.5-.2zM37.8 111.8c-.4.7-.4 1.4-.3 2.1.1.3 0 .6-.4.6s-.6-.1-.7-.5c-.1-.9-.1-1.9.5-2.6.2-.3.2-.5 0-.7-.1-.2-.2-.3-.4-.5-.3-.4-.2-.6.2-.9.4-.3.6 0 .8.2.4.6.9 1.2 1.4 1.9.4-.6.4-1.2.3-1.8-.1-.3-.1-.6.3-.6s.7 0 .7.5c.1.9 0 1.7-.6 2.4-.2.2-.1.4 0 .6.3.3.5.7.7 1 .3.4 0 .6-.3.8-.3.2-.5.2-.7-.1-.3-.8-.9-1.6-1.5-2.4zM71 108.6v-1.2c0-.4.3-.5.6-.5s.6 0 .6.4v1.4c0 .3.1.4.3.3h1.2c.7 0 1.2.6.9 1.3l-1.5 3.9c-.1.3-.4.3-.6.2-.3-.1-.6-.3-.4-.7.4-.9.7-1.9 1.1-2.8.2-.5.1-.6-.4-.6h-1.2c-.5 0-.6-.2-.6-.6v-1.1zM65.2 108.1c0 1 0 1 1 1h.4c1 0 1.4.6 1.1 1.5-.4 1.2-.9 2.3-1.3 3.5-.1.4-.3.5-.7.4-.4-.2-.6-.3-.4-.8.4-.9.7-1.9 1.1-2.8.2-.4.1-.6-.4-.6h-1.4c-.3 0-.5-.2-.5-.5v-2.5c0-.4.3-.4.6-.5.3 0 .6.1.6.5-.1.3-.1.6-.1.8zM79.1 114.4h-.9c-.5 0-.6-.3-.6-.7 0-.4.1-.6.5-.6h1.5c.4 0 .7-.2.7-.6.1-.5.1-1.1-.1-1.6-.1-.4-.3-.6-.7-.6h-1.2c-.4 0-.4-.3-.4-.6s0-.7.4-.7h1.6c.6 0 1 .4 1.2.9.4 1.2.4 2.4.1 3.6-.1.4-.5.7-.9.8-.3.1-.8.1-1.2.1zM30.8 109.1h1.3c.9 0 1.3.6 1 1.5-.4 1.1-.8 2.1-1.2 3.2-.1.4-.4.4-.7.3-.3-.1-.6-.3-.4-.7.3-.8.6-1.6.9-2.3.2-.6.2-.7-.5-.7h-2c-.5 0-.5-.3-.5-.6s0-.7.5-.6c.5-.1 1-.1 1.6-.1z"/><path opacity=".25" d="M30.4 77.3h3.3c1.2 0 1.8.9 1.7 2.2-1.6 0-3.1 0-4.6-.3-.4-.1-.6-.2-.5-.7 0-.4.1-.8.1-1.2z"/><path d="M24.8 112.4v1.6c0 .4-.3.5-.6.5s-.6 0-.6-.5v-3.2c0-.4-.1-.5-.5-.4h-1.3c-.5 0-.5-.3-.5-.6s0-.6.5-.6H25c.4 0 .4.3.4.6s.1.7-.4.7c-.3 0-.3.2-.3.4.1.4.1.9.1 1.5zM47.9 112.1v1.8c0 .4-.2.5-.6.5-.3 0-.6-.1-.6-.5V111c0-.6-.1-.7-.7-.7h-1.8c-.5 0-.5-.3-.5-.6s0-.7.5-.6h2.5c.7 0 1.1.4 1.1 1.1.1.6.1 1.3.1 1.9zM96.7 112.1v1.7c0 .4-.2.6-.6.6-.4 0-.6-.1-.6-.6v-2.9c0-.6-.1-.7-.7-.7H93c-.5 0-.5-.3-.5-.6s0-.6.5-.6h2.6c.6 0 1.1.4 1.1 1v2.1zM60.8 112.1v1.8c0 .4-.3.5-.6.5s-.6-.1-.6-.5v-3c0-.5-.2-.7-.7-.7h-1.8c-.5 0-.5-.3-.5-.6s0-.7.5-.6h2.5c.7 0 1.1.4 1.1 1.1.1.7.1 1.4.1 2zM30.2 113.5v2.2c0 .4-.2.5-.6.5-.3 0-.6-.1-.6-.5v-4.4c0-.4.3-.5.6-.5.4 0 .6.1.6.5v2.2zM8.8 109.1h.3c1.1 0 1.5.5 1.4 1.6-.1.7-.5 1.4-.9 2-.2.3-.3.3-.6.1-.2-.2-.6-.3-.4-.7.2-.3.4-.6.6-1 .2-.5.1-.7-.5-.8h-.5c-.6 0-.7-.1-.7-.7 0-.4.2-.6.6-.6.3.1.5.1.7.1zM43.7 114l.3-2.4c0-.3.2-.4.5-.4s.6.1.6.5c-.1.8-.1 1.6-.2 2.4 0 .5-.4.4-.7.4-.3-.1-.6-.2-.5-.5zM57.9 111.9c0 .6-.1 1.3-.2 2.1 0 .5-.3.5-.7.5-.4 0-.6-.2-.5-.6.1-.7.2-1.5.3-2.2 0-.4.2-.5.5-.4.4-.1.7 0 .6.6zM93.8 111.9c-.1.6-.1 1.4-.2 2.1 0 .5-.4.5-.7.4-.3 0-.5-.2-.5-.6.1-.7.2-1.5.3-2.2 0-.3.2-.5.5-.5.4.1.7.2.6.8z"/><path opacity=".25" d="M83.4 77.3h2.4c.9 0 1.5.5 2 1.3.3.6.5 1.3.5 2 .3 3.6-.2 6.9-2.7 9.7-.9 1-1.9 1.8-3.3 2.2-.7.2-.8.2-.8-.6-.3-3.6-.5-7.3-.8-10.9-.1-1.1-.1-2.1-.2-3.2 0-.3.1-.4.4-.4.9-.1 1.7-.1 2.5-.1z"/></g></svg>