<svg xmlns="http://www.w3.org/2000/svg" width="783.2" height="368.5" viewBox="0 0 783.2 368.5"><g fill="#FFF0DE"><path d="M41.3 368.5c-.8 0-3.3-.6-7.7-6.3-1.9-2.5-5.3-12.7-6.3-53v-60.9c0-49.6 2.9-89.7 8.7-119.1l.6-3.1-3.1-.3c-8.1-.7-15.5-2.2-21.8-4.4-8.9-2.8-11.2-5.1-11.8-6 .4-.3 1.6-1 4.9-1.5 2.8-.5 6.3-.8 10.4-.8 5.9 0 13.1.5 21.6 1.5l2.6.3.5-2.6c2.3-11.9 4.7-23.8 7.2-35.3 4.2-14.5 9.9-21.9 17.1-21.9 9.4 0 16.5 2.6 21.5 8.1 5.1 5.5 7.6 12.1 7.6 20.3 0 10-3.4 18.6-10.3 26.3-7.9 8.8-18.8 14-32.5 15.5l-2.1.2-.4 2c-3.3 16.6-5 35.4-5 55.8 0 14.2 1.2 35.8 3.4 64 2.3 28.1 3.4 49.3 3.4 62.8 0 18.5-1.4 35.3-4.1 49.8-1 5.4-2.7 8.6-4.4 8.6zM62.6 68.1c-2.8 4.2-4.6 9.8-5.4 16.9-1.7 12.9-2.3 15.5-2.5 16v.1l-.1.2-3.5 12.7 4.4-.8c17.7-3.3 26.7-14.8 26.7-34V78l-.8-.8c-5.8-5.8-10.9-9.1-15.8-10.3l-1.9-.5-1.1 1.7zM111.8 305.9c-4 0-4-1.6-4-2.9 0-1.8.8-4 2.3-6.6v-.2c.9-1.7 2.3-3.7 4.4-5.7l6.5-6.6c10.1-10.9 18.4-25.2 24.6-42.5.8-2.4 4.7-16.2 11.9-42.1 3.9-14.8 8.6-25.3 13.9-31.3 4.6-5.5 6.8-5.9 7.4-5.9 1.2 0 2.9 2.4 4.1 9.1 1 6.7-2.5 24.6-24.9 71.8-22.3 47-33.8 59.3-39.5 61.4-2.5 1.1-4.8 1.5-6.7 1.5zm22.9-74.2c-.9 0-3.6 0-6.3-5l-.1-.1c-1.3-2.2-2.3-5.9-3-11.1v-.1c-.8-4.3-1.4-8.6-1.9-12.8v-.2c-1.3-6.5-4-15.2-8.1-26-4.5-11.6-7.4-19.8-8.7-24.5-.5-1.6-.7-3-.7-4.2 0-5.1 2-5.5 4-5.5s4.3 1.1 6.8 3.4c2.6 2.6 7.1 11.1 14.5 36.8 5.5 20 8.3 33.8 8.3 41.1 0 8.2-3.3 8.2-4.8 8.2zM250.9 254.5c-18.1 0-31.7-3.4-40.6-10.1-7.4-5.6-11.1-12.7-11.1-21.7 0-11.1 4.8-21.8 14.3-31.8 9.4-9.9 19.8-14.9 30.9-14.9 1.8 0 3.6.2 5.4.7h.2c5.7.9 8.2 1.8 9.2 2.3-1.1 1-3.7 3-10.5 6.4-11.4 5.7-19.3 10.4-24.1 14.4-9.3 7.1-14 15.1-14 23.5 0 13 13.5 19.6 40.2 19.6 10.3 0 22.6-5 22.6-28.7 0-12.7-4.1-32.5-12.1-58.9-10.3-34-11.9-42.1-11.9-43.9 0-18.1 3.3-36.8 9.7-55.5 5.5-15.7 12.3-29.6 20.2-41.2C288.9 1.1 293.2 0 294.3 0c.9 0 1 2.3 1 3.3 0 1.8-.4 4-1 6.5v.2c-1.7 9.1-5.6 20.2-11.6 32.8-8.2 18-12.9 28.6-14.2 32.3-4.9 12.6-7.4 24.9-7.4 36.4 0 12 4.3 29.2 12.8 51.3 8.2 21.4 12.4 38 12.4 49.3 0 10.5-3.3 20.2-9.7 28.8-7.3 9.1-15.7 13.6-25.7 13.6zM368.9 306.3c-5.4 0-11.6-2.9-18.4-8.5l-.1-.1c-3.3-2.5-5-4.9-5-7.3 0-.9 0-3.6 8.6-3.6 25.4 0 38.3-20.4 38.3-60.7 0-11-1.5-28.2-4.6-51l-.5-3.4-3.3 1.1c-4.3 1.4-8.1 2.1-11.3 2.1-7.1 0-7.1-2.4-7.1-3.3 0-2.5 3.3-5.4 9.3-8.1 8.5-3.4 20.2-5.1 34.7-5.1 20.8 0 34.4 8.5 41.6 26.1 4.4 11 6.6 29.5 6.6 54.9 0 4-1.7 5.5-5.9 5.5-4 0-5.5-1.5-5.5-5.5 0-24.2-1.4-39.7-4.4-47.5-5.4-14.7-17.7-22.1-36.6-22.1-1.3 0-2.6 0-3.9.1l-3.2.2.5 3.1c1 6.2 1.5 15.4 1.5 27.4 0 27.1-2.2 50.3-6.4 69.1-5.5 24.3-14 36.6-24.9 36.6zM480.9 261.4c-1 0-4.1 0-4.4-8.7 0-4.8.9-11.9 2.6-21.1 2-10.4 3.3-17.8 3.8-21.9v-.2c.3-3.9.3-9.2 0-15.9V178c0-4.7.2-8.9.7-12.5 1.5-7.5 4.7-7.5 5.9-7.5 1.5 0 2.7.5 3.8 1.6 1.1 1.1 1.6 2.4 1.6 3.9v4.9l4.2-2.4c7.6-4.3 14.6-6.5 20.9-6.5 11.1 0 19.8 5.9 26.6 18 6.5 11 9.8 24.3 9.8 39.8 0 12.4-2.3 23-6.9 31.4-1.5 2.8-3.9 6.1-6.7 6.1-2.5 0-4.2-2.8-5.2-8.2-.5-4 .2-11.4 1.9-22 2.3-12.7 3.5-21.3 3.5-26.4 0-17.1-9.3-26.1-26.8-26.1-4.4 0-10.6 2.5-19 7.7l-1.4.9.1 1.7c.5 10.5.1 23.6-1.1 38.9-2.1 23.6-4.9 31.8-6.9 34.6-2.5 3.6-4.9 5.5-7 5.5zM571.6 306.3c-5.4 0-11.6-2.9-18.4-8.5l-.1-.1c-3.3-2.5-5-4.9-5-7.3 0-.9 0-3.6 8.6-3.6 25.4 0 38.3-20.4 38.3-60.7 0-11-1.5-28.2-4.6-51l-.5-3.4-3.3 1.1c-4.3 1.4-8.1 2.1-11.3 2.1-7.1 0-7.1-2.4-7.1-3.3 0-2.5 3.3-5.4 9.3-8.1 8.5-3.4 20.2-5.1 34.7-5.1 20.8 0 34.4 8.5 41.6 26.1 4.4 11 6.6 29.5 6.6 54.9 0 4-1.7 5.5-5.9 5.5-4 0-5.5-1.5-5.5-5.5 0-24.2-1.4-39.7-4.4-47.5-5.4-14.7-17.7-22.1-36.6-22.1-1.3 0-2.6 0-3.9.1l-3.2.2.5 3.1c1 6.2 1.5 15.4 1.5 27.4 0 27.1-2.2 50.3-6.4 69.1-5.6 24.3-14 36.6-24.9 36.6zM684.4 284.6c-.6 0-2.8-.5-5.6-7.5-.2-2.7 1.1-20.6 11.1-107.1l.1-1.3-.8-.9c-1.5-1.7-2.3-3.3-2.3-4.6 0-1.3 0-3.6 6.3-3.6 1.9 0 3.8.4 5.7 1.3h.1c1.4.6 6.4 4.6 21.1 28.9 6.8 12.1 13.7 24.3 20.5 36.1l3.3 5.8 1.9-6.4c4.1-14.1 8.1-28.2 11.8-41.9 8-25.3 12.4-33.8 14.7-36.5 4-4.8 6.2-5.3 7-5.3 2.8 0 3.7 6.4 4 9.2-.1 1.6-2.2 9.8-14.2 46.5-12.1 37-16 47.3-17.1 49.4-3.5 6.1-5.2 6.5-5.2 6.5s-1.5-.1-5.9-4.5c-5.9-5.6-12.4-15.5-19.3-29.4-9-17.8-14.7-28.4-17.3-32.6l-4.9-7.9-.3 9.3c-.5 15.7-1.2 31.4-1.9 46.8-1.2 21.3-3.6 35.6-6.9 42.3l-.1.1c-2 4.7-4.1 7.3-5.8 7.3z"/></g></svg>