<svg xmlns="http://www.w3.org/2000/svg"><defs><filter id="multiply"><feBlend mode="multiply"/></filter></defs><symbol viewBox="0 0 564.5 282.3" id="main-image"><path fill="#FFF0DE" d="M102.1 112.2l.7 9.2s121.4 4.7 142.5 4.4c21-.3 154.4.3 223.5-1.2s95.5-1.9 95.5-1.9l.1-9.3s-169.1-.9-234.4-1.8c-65.3-.9 0 0 0 0l-227.9.6zM550.2 35.1s-396.4.8-428.4-1.2c-.4 8.3-.3 24-.3 24s348.6 1.1 428.4.1c.6-6.2.3-22.9.3-22.9zM549.9 68.6s-306.6 2.1-431 .4c-1.2 15.1-.3 22.9-.3 22.9s308.4 1.1 430.8.7c.6-10.5.5-24 .5-24zM122.5.4S406.9 4.8 548.6 0c1.4 14.1 1.7 25 1.7 25s-362.1 2.9-428.2-2.2c-.3-8.8.4-22.4.4-22.4zM145.1 126l-2.1 59.2-21.8.4 5-60.1zM518.1 125.8l1.9 59.3 21.8.5-4.8-60.3z"/><path fill="#4E4D50" class="shadow" d="M549.9 204H542s-4.6 0-13 .1h-5l17.7-18-20.8-.7-378.9.7-20.8-.7-18.7 19c-15.3-.1-29.1-.2-41-.4l-6.4 18.5h.4l-5.4 4s35.1.2 87.1.5c-.9.5-1.8 1-2.7 1.6-1.6.9-3.2 1.9-4.7 2.9-33.1-.1-62.7-.3-85.6-.6l-15.6 11.5s39.5.1 96.8.2c.6 1.7 1.8 3.3 3.3 4.8-42.1 0-79.6-.2-107.1-.6L0 262.3s42.9-.1 104.3-.3h2c10.7.5 20.4.1 29.8-.3-1.3 2.1-1.6 4.4-.4 7.3 11 20 48.9 12.4 66.7-2.1 2.2-1.9 3.3-3.7 3.9-5.3 27.3-.1 55.5-.2 83.3-.3h5.9c-4.5 20.2 22.6 23 36.2 20.1 1-.2 2-.4 3-.5 5-.5 10-2.5 14-7.5 3-4 9 2 13 0 2-1 5-3 4-6.5v-2.8c0-.7-.1-1.4-.3-2.1l-.3-.9c49.1-.2 93-.4 123.5-.6 19.7-14.6 16-14.5 16-14.5s-34.7.3-86.3.6c4.3-1.3 8.7-2.5 13-3.8 31.3-.1 59-.2 80.4-.3 19.7-14.6 5.1-11.4 5.1-11.4s-23.8.1-61.3.3c.2-1 .2-2 0-3 26.9 0 50.9-.1 69.9-.2 2.8-2.1 5.1-4 7.1-5.9 3.3 0 6.5 0 9.6-.1 17.9-16.1 7.8-18.2 7.8-18.2zm-319.1 43.3c3.6-1.5 7.1-3 10.6-4.5h43.4c.2 1.2.7 2.4 2 3.6.3.3.6.5 1 .8-18.7 0-37.9 0-57 .1zm53.4-15.6h-29.9c.1-1 .2-1.9.2-2.9v-1.1c9.8 0 19.8.1 29.8.1 0 1.3 0 2.6-.1 3.9z"><animate attributeName="fill-opacity" values="0;1;0" dur="2s" repeatCount="indefinite"/></path></symbol><symbol viewBox="0 0 783.2 368.5" id="heb-title"><g fill="#FFF0DE"><path d="M41.3 368.5c-.8 0-3.3-.6-7.7-6.3-1.9-2.5-5.3-12.7-6.3-53v-60.9c0-49.6 2.9-89.7 8.7-119.1l.6-3.1-3.1-.3c-8.1-.7-15.5-2.2-21.8-4.4-8.9-2.8-11.2-5.1-11.8-6 .4-.3 1.6-1 4.9-1.5 2.8-.5 6.3-.8 10.4-.8 5.9 0 13.1.5 21.6 1.5l2.6.3.5-2.6c2.3-11.9 4.7-23.8 7.2-35.3 4.2-14.5 9.9-21.9 17.1-21.9 9.4 0 16.5 2.6 21.5 8.1 5.1 5.5 7.6 12.1 7.6 20.3 0 10-3.4 18.6-10.3 26.3-7.9 8.8-18.8 14-32.5 15.5l-2.1.2-.4 2c-3.3 16.6-5 35.4-5 55.8 0 14.2 1.2 35.8 3.4 64 2.3 28.1 3.4 49.3 3.4 62.8 0 18.5-1.4 35.3-4.1 49.8-1 5.4-2.7 8.6-4.4 8.6zM62.6 68.1c-2.8 4.2-4.6 9.8-5.4 16.9-1.7 12.9-2.3 15.5-2.5 16v.1l-.1.2-3.5 12.7 4.4-.8c17.7-3.3 26.7-14.8 26.7-34V78l-.8-.8c-5.8-5.8-10.9-9.1-15.8-10.3l-1.9-.5-1.1 1.7zM111.8 305.9c-4 0-4-1.6-4-2.9 0-1.8.8-4 2.3-6.6v-.2c.9-1.7 2.3-3.7 4.4-5.7l6.5-6.6c10.1-10.9 18.4-25.2 24.6-42.5.8-2.4 4.7-16.2 11.9-42.1 3.9-14.8 8.6-25.3 13.9-31.3 4.6-5.5 6.8-5.9 7.4-5.9 1.2 0 2.9 2.4 4.1 9.1 1 6.7-2.5 24.6-24.9 71.8-22.3 47-33.8 59.3-39.5 61.4-2.5 1.1-4.8 1.5-6.7 1.5zm22.9-74.2c-.9 0-3.6 0-6.3-5l-.1-.1c-1.3-2.2-2.3-5.9-3-11.1v-.1c-.8-4.3-1.4-8.6-1.9-12.8v-.2c-1.3-6.5-4-15.2-8.1-26-4.5-11.6-7.4-19.8-8.7-24.5-.5-1.6-.7-3-.7-4.2 0-5.1 2-5.5 4-5.5s4.3 1.1 6.8 3.4c2.6 2.6 7.1 11.1 14.5 36.8 5.5 20 8.3 33.8 8.3 41.1 0 8.2-3.3 8.2-4.8 8.2zM250.9 254.5c-18.1 0-31.7-3.4-40.6-10.1-7.4-5.6-11.1-12.7-11.1-21.7 0-11.1 4.8-21.8 14.3-31.8 9.4-9.9 19.8-14.9 30.9-14.9 1.8 0 3.6.2 5.4.7h.2c5.7.9 8.2 1.8 9.2 2.3-1.1 1-3.7 3-10.5 6.4-11.4 5.7-19.3 10.4-24.1 14.4-9.3 7.1-14 15.1-14 23.5 0 13 13.5 19.6 40.2 19.6 10.3 0 22.6-5 22.6-28.7 0-12.7-4.1-32.5-12.1-58.9-10.3-34-11.9-42.1-11.9-43.9 0-18.1 3.3-36.8 9.7-55.5 5.5-15.7 12.3-29.6 20.2-41.2C288.9 1.1 293.2 0 294.3 0c.9 0 1 2.3 1 3.3 0 1.8-.4 4-1 6.5v.2c-1.7 9.1-5.6 20.2-11.6 32.8-8.2 18-12.9 28.6-14.2 32.3-4.9 12.6-7.4 24.9-7.4 36.4 0 12 4.3 29.2 12.8 51.3 8.2 21.4 12.4 38 12.4 49.3 0 10.5-3.3 20.2-9.7 28.8-7.3 9.1-15.7 13.6-25.7 13.6zM368.9 306.3c-5.4 0-11.6-2.9-18.4-8.5l-.1-.1c-3.3-2.5-5-4.9-5-7.3 0-.9 0-3.6 8.6-3.6 25.4 0 38.3-20.4 38.3-60.7 0-11-1.5-28.2-4.6-51l-.5-3.4-3.3 1.1c-4.3 1.4-8.1 2.1-11.3 2.1-7.1 0-7.1-2.4-7.1-3.3 0-2.5 3.3-5.4 9.3-8.1 8.5-3.4 20.2-5.1 34.7-5.1 20.8 0 34.4 8.5 41.6 26.1 4.4 11 6.6 29.5 6.6 54.9 0 4-1.7 5.5-5.9 5.5-4 0-5.5-1.5-5.5-5.5 0-24.2-1.4-39.7-4.4-47.5-5.4-14.7-17.7-22.1-36.6-22.1-1.3 0-2.6 0-3.9.1l-3.2.2.5 3.1c1 6.2 1.5 15.4 1.5 27.4 0 27.1-2.2 50.3-6.4 69.1-5.5 24.3-14 36.6-24.9 36.6zM480.9 261.4c-1 0-4.1 0-4.4-8.7 0-4.8.9-11.9 2.6-21.1 2-10.4 3.3-17.8 3.8-21.9v-.2c.3-3.9.3-9.2 0-15.9V178c0-4.7.2-8.9.7-12.5 1.5-7.5 4.7-7.5 5.9-7.5 1.5 0 2.7.5 3.8 1.6 1.1 1.1 1.6 2.4 1.6 3.9v4.9l4.2-2.4c7.6-4.3 14.6-6.5 20.9-6.5 11.1 0 19.8 5.9 26.6 18 6.5 11 9.8 24.3 9.8 39.8 0 12.4-2.3 23-6.9 31.4-1.5 2.8-3.9 6.1-6.7 6.1-2.5 0-4.2-2.8-5.2-8.2-.5-4 .2-11.4 1.9-22 2.3-12.7 3.5-21.3 3.5-26.4 0-17.1-9.3-26.1-26.8-26.1-4.4 0-10.6 2.5-19 7.7l-1.4.9.1 1.7c.5 10.5.1 23.6-1.1 38.9-2.1 23.6-4.9 31.8-6.9 34.6-2.5 3.6-4.9 5.5-7 5.5zM571.6 306.3c-5.4 0-11.6-2.9-18.4-8.5l-.1-.1c-3.3-2.5-5-4.9-5-7.3 0-.9 0-3.6 8.6-3.6 25.4 0 38.3-20.4 38.3-60.7 0-11-1.5-28.2-4.6-51l-.5-3.4-3.3 1.1c-4.3 1.4-8.1 2.1-11.3 2.1-7.1 0-7.1-2.4-7.1-3.3 0-2.5 3.3-5.4 9.3-8.1 8.5-3.4 20.2-5.1 34.7-5.1 20.8 0 34.4 8.5 41.6 26.1 4.4 11 6.6 29.5 6.6 54.9 0 4-1.7 5.5-5.9 5.5-4 0-5.5-1.5-5.5-5.5 0-24.2-1.4-39.7-4.4-47.5-5.4-14.7-17.7-22.1-36.6-22.1-1.3 0-2.6 0-3.9.1l-3.2.2.5 3.1c1 6.2 1.5 15.4 1.5 27.4 0 27.1-2.2 50.3-6.4 69.1-5.6 24.3-14 36.6-24.9 36.6zM684.4 284.6c-.6 0-2.8-.5-5.6-7.5-.2-2.7 1.1-20.6 11.1-107.1l.1-1.3-.8-.9c-1.5-1.7-2.3-3.3-2.3-4.6 0-1.3 0-3.6 6.3-3.6 1.9 0 3.8.4 5.7 1.3h.1c1.4.6 6.4 4.6 21.1 28.9 6.8 12.1 13.7 24.3 20.5 36.1l3.3 5.8 1.9-6.4c4.1-14.1 8.1-28.2 11.8-41.9 8-25.3 12.4-33.8 14.7-36.5 4-4.8 6.2-5.3 7-5.3 2.8 0 3.7 6.4 4 9.2-.1 1.6-2.2 9.8-14.2 46.5-12.1 37-16 47.3-17.1 49.4-3.5 6.1-5.2 6.5-5.2 6.5s-1.5-.1-5.9-4.5c-5.9-5.6-12.4-15.5-19.3-29.4-9-17.8-14.7-28.4-17.3-32.6l-4.9-7.9-.3 9.3c-.5 15.7-1.2 31.4-1.9 46.8-1.2 21.3-3.6 35.6-6.9 42.3l-.1.1c-2 4.7-4.1 7.3-5.8 7.3z"/></g></symbol><symbol viewBox="0 0 334.4 39" id="heb-subtitle"><g fill="#FFF0DE"><path d="M4.1 8.4V39H0V8.4h4.1zM14.6 8.4v11.4h-4.1V8.4h4.1zM20.9 8.4h18v5.5c0 1.7-.2 3.1-.5 4-.3.9-1.2 2.3-2.6 4.2-1.1 1.5-1.7 3.1-1.7 4.9v3.5h-4v-3c0-1.6.1-2.8.4-3.8.3-.9.8-1.9 1.7-2.9l1.2-1.6c.6-.8 1-1.5 1.2-2.1.2-.6.3-1.4.3-2.5v-3h-14V8.4zm.4 30.6V18.1h3.8V39h-3.8zM59.4 8.4c-.2 3.7-.4 6-.6 6.9-.2.9-.7 1.8-1.4 2.7-.8.9-2 1.8-3.6 2.8l4.7 7.4v2.3H42.6v-3.3h11.1L41.5 8.4H46l6.1 9.8c1-.7 1.8-1.5 2.2-2.4.5-.9.7-2.1.7-3.7l.2-3.7h4.2zM79.9 8.4c-.2 3.7-.4 6-.6 6.9-.2.9-.7 1.8-1.4 2.7-.8.9-2 1.8-3.6 2.8l4.7 7.4v2.3H63v-3.3h11.1L61.9 8.4h4.5l6.1 9.8c1-.7 1.8-1.5 2.2-2.4.5-.9.7-2.1.7-3.7l.2-3.7h4.3zM101.3 8.4V39h-4.1V8.4h4.1zM127.4 30.5h-4.9l-8.4-11.9c-1.3.7-2.1 2.2-2.3 4.3l-.9 7.6h-4.1l.9-7.6c.4-3.6 1.9-6 4.4-7.2l-5.2-7.3h4.9l7.1 9.9c.6-.4 1-.8 1.4-1.2.3-.5.6-1.1.8-1.9.2-.8.5-3.1.9-6.7h4.1l-.5 4.6c-.3 2.1-.7 3.8-1.4 4.9-.7 1.2-1.8 2.2-3.3 3.2l6.5 9.3zM135.9 8.4v11.4h-4.1V8.4h4.1zM140.8 8.4h3.9l1.6 4.9c.7-1.5 1.7-2.7 3.1-3.6 1.4-1 2.9-1.5 4.4-1.5 2.6 0 4.5.9 5.9 2.7 1.4 1.8 2 5.1 2 9.8v9.8h-11.4v-3.3h7.4v-6.5c0-2.7-.1-4.5-.3-5.6s-.7-1.9-1.3-2.6c-.7-.6-1.4-1-2.3-1-1.5 0-2.8.8-3.9 2.4-1.1 1.6-2 4.4-2.8 8.4l-1.6 8.2h-4l1.7-8.6 1-4.3-3.4-9.2zM185.5 11.8h-3.8v18.8h-4V11.8h-12.1V8.4h19.8v3.4zM202.4 8.4h12.9v5.7c0 1.7-.1 3-.4 4-.3.9-.8 1.8-1.5 2.7-1.3 1.6-2 2.7-2.3 3.5-.3.8-.5 1.7-.5 2.6v3.6h-2.7v-3c0-1.5.1-2.7.4-3.5.2-.9.8-1.9 1.7-3.2 1.2-1.6 1.9-2.6 2.2-3s.4-.9.4-1.3c.1-.4.1-1 .1-1.8v-3.8h-12.9V0h2.7v8.4zM222.7 8.4c.2 5.2.4 8.3.5 9.3.1 1 .3 2 .5 2.8 2-.2 3.5-.5 4.4-1 .9-.5 1.5-1.1 1.8-1.8s.5-1.8.7-3.3l.5-5.9h2.7l-.5 6.6c-.2 2.1-.6 3.6-1.2 4.6-.6.9-1.5 1.7-2.6 2.2-1.2.5-2.8.9-5 1.1.5 1.9 1.4 3.3 2.7 4.4 1.3 1 2.9 1.5 4.8 1.5 2.8 0 4.8-.9 6.2-2.7 1.3-1.8 2.2-4.5 2.5-8.1l.9-9.5h2.7l-.9 9.4c-.5 4.9-1.6 8.3-3.5 10.3s-4.6 3-8.1 3c-3.7 0-6.5-1.3-8.3-4-1.8-2.7-2.9-6.9-3.1-12.6l-.4-6.3h2.7zM264.4 8.4v22.1h-2.7V8.4h2.7zM270.8 8.4h2.7v11c0 6.1 2.2 9.2 6.5 9.2 2.5 0 4.2-.8 5.2-2.4 1-1.6 1.5-4 1.5-7.2v-3c0-3.7-.9-5.5-2.8-5.5-1.2 0-2.4.7-3.7 2l-1.2-1.8c1.3-1.8 3-2.6 5-2.6 1.8 0 3.1.7 4 2 .9 1.3 1.3 3.4 1.3 6.3V19c0 4.3-.8 7.4-2.3 9.4-1.6 1.9-3.9 2.9-7 2.9-3.2 0-5.5-.9-7-2.8-1.5-1.8-2.2-4.8-2.2-8.9V8.4zM293 8.7c2-.3 3.8-.5 5.4-.5 4 0 6.9.8 8.7 2.5 1.7 1.6 2.6 4.3 2.6 7.9v11.9H307V19c0-3.2-.7-5.4-2-6.6-1.4-1.2-3.5-1.7-6.4-1.7-1.5 0-3.2.1-5.3.4l-.3-2.4zM324.6 7.9c3 0 5.4 1.1 7.1 3.3 1.7 2.2 2.6 5 2.6 8.4 0 3.6-.9 6.4-2.7 8.5-1.8 2.1-4.2 3.1-7.1 3.1-2.9 0-5.3-1-7-3.1-1.7-2.1-2.6-4.9-2.6-8.5 0-3.4.9-6.2 2.6-8.4 1.8-2.2 4.2-3.3 7.1-3.3zm.1 2.5c-2.2 0-3.9.8-5.1 2.5-1.3 1.7-1.9 3.9-1.9 6.7 0 2.8.6 5 1.9 6.7 1.3 1.7 3 2.5 5.1 2.5 2.1 0 3.8-.8 5.1-2.5 1.3-1.7 1.9-3.9 1.9-6.7 0-2.8-.6-5-1.9-6.7-1.3-1.7-3-2.5-5.1-2.5z"/></g></symbol><symbol viewBox="0 0 829.4 194.6" id="eng-title"><g fill="#FFF0DE"><path d="M149.6 128c.2-.5 1.6.5 1.1 1.1-5.3 8.2-33.1 41.4-43.9 41.4-11 0 9.6-60.8 21-96-25.3 46-73.5 109.5-96.4 109.5-7.1 0-10.1-6.6-10.1-13.7 0-14.4 35.4-86.2 35.4-127.3 0-17.4-6.4-29.3-24-29.3-8 0-18.1 3.9-31.1 13.5-.9.5-2.1-1.8-1.6-2.3C30.3-.2 66.2 6.4 66.2 42.7c0 43.9-41.6 117.3-41.6 126.4 0 3.4 1.6 7.8 5.9 7.8 20.3 0 85.7-83.2 102.4-118.9.7-1.8.9-3.4 1.4-4.8 1.1-5.3 4.1-16.9 3.9-19.7 2.7 1.8 10.3 1.8 8.7 6.9-2.1 5-44.8 121.1-34.3 121.1 8 1 30.8-25.7 37-33.5zM142.7 168.7c-.9-3.7-1.4-8-1.4-12.8 0-13.5.9-34.1 16-39.5.5 0 .7 1.8.2 2.3-3.7 4.1-5.7 6.9-6.9 14.6-.9 5.3-1.8 11.7-2.3 19.4 8.7-19.4 24.5-44.3 37.5-44.3 3.4 0 5.3 2.3 5.3 6.2 0 11.2-21.7 41.6-19.4 47.8.9 2.7 29.3-23.1 39.1-35 .5-.5 1.4.7 1.1 1.1-6.9 10.3-40.9 44.6-45.9 44.6-1.1 0-1.4-.9-1.4-2.3 0-15.1 20.1-44.8 20.1-54.2 0-.9-.2-3.2-2.5-3.2-12.6 0-35.4 45.7-38.4 55.5-.2 0-.8 0-1.1-.2z"/><path d="M295.9 128.2c-12.1 18.3-38.6 37.5-49.1 37.5-5.5 0-8.5-7.5-8.5-18.7v-2.1c-8.7 8.9-22.6 20.6-32.5 20.6-5.3 0-8.9-3.9-8.9-9.6 0-16.2 23.8-47.3 49.8-45.7C263.4 64.5 300.4 5 321.2 5c3.7 0 4.8 3 4.8 6.9 0 35-57.6 102.4-79.3 123.9-.5 3.2-.7 6.2-.7 8.9 0 8.7 1.8 13.7 5.7 13.7 9.1 0 31.5-16.5 43-31.3.5-.5 1.4.7 1.2 1.1zm-49.9-16c-25.8 3.4-40.5 32-40.5 42.1 0 3 1.6 4.1 5 4.1 8.5 0 20.3-9.6 27.9-17.1 1-8 3.7-18.1 7.6-29.1zm1.2 20.1c21.5-20.3 70.2-86.4 70.2-115.2 0-3.7-1.1-5.7-3.2-5.7-11.5 0-58.8 74.5-67 120.9z"/><path d="M346.6 128.5c-5.5 8.7-32.7 38.2-50.7 38.2-9.1 0-11.2-8-11.2-15.1 0-16.2 15.8-45.3 32.9-45.3 4.1 0 10.1 1.8 10.1 5.5 0 6.2-16.2 14.9-32 21.3-2.3 5.5-3.7 11.2-3.7 15.8 0 5.5 1.4 11.7 6.6 11.7 15.8 0 41.4-25.4 46.9-33.1.2-.6 1.6.3 1.1 1zm-30.9-19.2c-5.7 0-13.5 9.8-18.5 20.6 14.4-5.9 22.9-12.1 22.9-16.7 0-2.3-2.5-3.9-4.4-3.9z"/><path d="M312.5 168.5c0-19.9 27.9-27.9 42.5-52.1-.2-.9.2-2.7 2.1-6.2 1.8-2.1 6.4-3.9 10.7-4.8l.2 2.3c-3.4 3.2-4.6 5-4.6 6.2 0 2.7 6.9 1.8 6.9 8.2-.7 11.9-17.6 17.6-17.6 29.7 0 4.6 2.1 8.9 8.2 8.9 16.2 0 29.7-19.2 42.1-33.4.5-.5 1.4.7 1.1 1.1-7.8 10.3-30.2 40-45.3 40-7.3 0-11-5.3-11-11.9 0-13 14.6-19 14.6-36.3 0-3.4-3.7-2.5-5.9-2.7-14.4 24.5-37.9 34.7-37.9 55.1 0 5.9 2.1 12.8 6.9 21 .2.5-1.1 1.1-1.4.9-8.4-10.7-11.6-19.2-11.6-26zM437.1 167.8c-2.5 0-4.1-3.7-4.3-5-.9-4.8.9-14.6 5.3-27.9 1.1-3.7 6.4-17.6 11.7-31.5-7.3-.2-14.2-1.1-21.3-3.4-.7 0 0-2.5.7-2.3 7.3 2.1 14.4 3 21.7 3 5.5-15.1 11-29.5 11.2-30.6.7.9 1.6 3.7 2.7 5.5.5.9 2.5 3 .5 5.7-2.3 3.2-5.7 10.3-9.4 19.2 10.1-.9 20.3-3.4 29.9-7.3C504.5 45.9 539 0 555.3 0c5.5 0 8 5.9 8 11.2 0 28.8-32.5 65.6-71.3 82.5-4.3 11.2-7.8 21.9-9.4 30.9-.9 4.6-2.7 15.5-3.2 32.7 10.3-18.3 25.8-45 38.6-45 2.7 0 3.9 2.1 3.9 5.3 0 10.5-12.1 33.6-11 36.6.9 2.7 21.5-14.9 31.1-26.7.5-.5 1.4.7 1.1 1.1-6.4 9.8-33.8 37-39.5 37-.9 0-1.4-.7-1.4-2.1 0-7.5 13.3-34.3 13.3-43.2 0-.9-.2-3-2.1-3-10.1 0-35.7 48.5-38.9 54.2-.2 0-.9 0-1.1-.2-.5-5.3-.7-10.3-.7-14.6 0-6.4.5-11.9.9-17.1 1.1-13.3 5-27.9 10.7-42.5-9.8 3.4-19.9 5.7-29.7 6.2-7.5 19-15.5 43.4-15.5 51.2 0 11.7 15.5-.5 18.5-2.5.5-.2 1.6.5 1.1 1.1-7 5.8-17.3 14.7-21.6 14.7zm56.7-78.4c34.7-17.1 61.7-50.7 61.7-76.1 0-5.3-2.5-7.5-5.3-7.5-11.6-.1-40 44-56.4 83.6z"/><path d="M594.1 128.5c-5.5 8.7-32.7 38.2-50.7 38.2-9.1 0-11.2-8-11.2-15.1 0-16.2 15.8-45.3 32.9-45.3 4.1 0 10.1 1.8 10.1 5.5 0 6.2-16.2 14.9-32 21.3-2.3 5.5-3.7 11.2-3.7 15.8 0 5.5 1.4 11.7 6.6 11.7 15.8 0 41.4-25.4 46.9-33.1.2-.6 1.6.3 1.1 1zm-30.8-19.2c-5.7 0-13.5 9.8-18.5 20.6 14.4-5.9 22.9-12.1 22.9-16.7-.1-2.3-2.6-3.9-4.4-3.9zM645.1 100.1c-8 19.2-17.1 46.2-17.1 54.4 0 1.6.5 2.5 1.6 2.5 8.5 0 31.5-22.2 37.5-29.7.2-.5 1.6.5 1.1 1.1-5.3 8.2-33.6 37.5-44.6 37.5-2.5 0-2.5-2.3-2.5-3.7 0-4.8 1.8-14.2 6.2-27.4l12.8-34.5c-9.4.2-17.4.2-22.4 0 2.3-3.4 1.6-6.4 3.7-6.4 5.3 1.1 12.3 1.8 20.3 2.1 5-13.3 9.4-25.1 9.6-26.1.7.9.9 4.8 2.5 5.9.7.7 2.7 2.5.7 5.3-1.8 2.5-4.6 8-7.5 14.9 19.4.2 42.7-1.1 57.6-2.1.7 0 1.4 1.4.7 1.4-12.4 2.1-38.7 3.9-60.2 4.8z"/><path d="M634.8 168.5c0-19.9 27.9-27.9 42.5-52.1-.2-.9.2-2.7 2.1-6.2 1.8-2.1 6.4-3.9 10.7-4.8l.2 2.3c-3.4 3.2-4.6 5-4.6 6.2 0 2.7 6.9 1.8 6.9 8.2-.7 11.9-17.6 17.6-17.6 29.7 0 4.6 2.1 8.9 8.2 8.9 16.2 0 29.7-19.2 42.1-33.4.5-.5 1.4.7 1.1 1.1-7.8 10.3-30.2 40-45.3 40-7.3 0-11-5.3-11-11.9 0-13 14.6-19 14.6-36.3 0-3.4-3.7-2.5-5.9-2.7-14.4 24.5-37.9 34.7-37.9 55.1 0 5.9 2.1 12.8 6.9 21 .2.5-1.1 1.1-1.4.9-8.4-10.7-11.6-19.2-11.6-26z"/><path d="M802.8 113.1c0-2.3-2.5-3.9-4.3-3.9-9.1 0-23.8 25.4-23.8 39.5 0 5.5 1.4 11.7 6.6 11.7 15.8 0 41.4-25.4 46.9-33.1.2-.5 1.6.5 1.1 1.1-5.5 8.7-32.7 38.2-50.7 38.2-9.1 0-11.2-8-11.2-15.1 0-4.8 1.4-11 3.9-17.1-11 14.9-28.8 35.4-41.6 35.4-9.4 0-12.1-11-12.1-18.1 0-16.2 10.3-45.5 32.5-45.5 4.1 0 10.1 1.8 10.1 5.5 0 6.2-16.9 15.5-32.2 20.3-2.1 5.9-3 12.1-3 16.9 0 5.5 1.4 14.6 7.5 14.6 15.8 0 41.6-36.1 47.1-43.9 5.9-7.8 13.3-13.5 20.8-13.5 4.1 0 10.1 1.8 10.1 5.5 0 8.5-13.5 14.9-28.3 20.1-.5-.2-.2-1.6.5-2.5 12.8-4.2 20.1-9.2 20.1-16.1zm-54.6-3.8c-8.7 0-15.3 9.4-19.4 20.1 14.6-5 23.8-11.7 23.8-16.2-.1-2.3-2.6-3.9-4.4-3.9z"/></g></symbol><symbol viewBox="0 0 452.4 37.6" id="eng-subtitle"><g fill="#FFF0DE"><path d="M7 19.1l6.6-.8-.1-2c-.3-4.2-3-5.6-6.2-5.6-2.2 0-4 .6-5.7 1.5v-.5c0-1 3.2-2.2 6.1-2.2 3.4 0 6.7 1.4 7 6.6l.9 13.4c0 .6-.2.7-1.2.7l-.5-7.5c-1.3 5-4.4 7.9-8.3 7.9C1.9 30.6 0 28 0 24.9c0-3.3 2.3-5.2 7-5.8zM5.9 29.5c4.1 0 7.3-4 7.7-10.1l-6.4.8c-4 .5-5.8 2-5.8 4.7 0 2.5 1.6 4.6 4.5 4.6zM31.7 30.1v-17l-3-.4c0-.2.1-.6.3-.7h2.7V9.6c0-4.7 2-7.3 6.1-7.3.9 0 2.4.3 2.4 1.2v.4c-.7-.3-1.5-.4-2.1-.4-3.7 0-5.2 2.1-5.2 6.3V12h11.9v18.2h-1.2v-17H32.9v17h-1.2zm12.6-26c-.8 0-1.2-.5-1.2-1.2s.4-1.2 1.2-1.2 1.2.5 1.2 1.2-.4 1.2-1.2 1.2zM51.7 30.1V1.8c0-.6.2-.7 1.2-.7v29h-1.2zM86.6 30.2V17.3c0-4.7-2.2-6.6-5.2-6.6-3.1 0-7 2.6-7 8.4v11h-1.2V17.3c0-4.7-2.4-6.6-5.3-6.6-3.1 0-6.9 2.6-6.9 8.4v11h-1.2V10.6c0-.7.2-.7 1.2-.7V15c1.3-3.8 4.4-5.5 7.3-5.5 2.9 0 5.5 1.6 6 5.7 1.5-4 4.7-5.7 7.5-5.7 3.5 0 6 2.1 6 7.3v12.6c0 .7-.2.8-1.2.8zM104 17c1.3-4.4 4.6-7.5 8.8-7.5 4.9 0 7.6 4.1 7.6 9.4 0 5.9-3.5 11.6-9.5 11.6-3.5 0-5.8-1.9-6.9-4.8v4.4h-1.2V3.3c0-.6.2-.7 1.2-.7V17zm8.6-6.3c-4.9 0-8.4 5-8.4 11 0 3.9 2.3 7.6 6.6 7.6 5.5 0 8.4-5.2 8.4-10.5-.1-4.4-2.2-8.1-6.6-8.1zM141.8 10.2l-7.6 19.7c-.2 5.3-2.3 7.7-5.4 7.7-1.1 0-2.5-.3-2.5-1.1V36c.7.2 1.4.3 2.2.3 2.5 0 4.3-2 4.4-6.3-3.9-6.4-7.2-13.3-9.3-20.1h1.5c2 6.4 5 12.9 8.4 18.5l7-18.5h1.3v.3zM164.5 30.1h-2.1c-4.7 0-7-1.9-7-7.1V6.4h-2.2c0-2.4 0-3.7 1.4-3.7H165c7.4 0 13.4 4.2 13.4 12.8 0 8.9-6.4 14.6-13.9 14.6zm-5.3-23.7v16.3c0 2.5 1 3.8 3.5 3.8h1.6c5.3 0 9.9-3.8 9.9-10.9 0-6.6-4.5-9.1-9.9-9.1h-5.1zM199.1 27.5c0 2.2-3.4 3.1-6.6 3.1-5.8 0-10.1-3.8-10.1-11.3 0-5.8 4-10 9.6-10 5.5 0 8.7 3.8 8.7 9.3 0 2.3-1.7 2.9-3.5 2.9h-10.8c.6 3.8 3.1 5.7 7.8 5.7 1.7 0 3.4-.4 4.9-1v1.3zm-12.9-9h9.2c1 0 1.4-.9 1.4-1.4 0-3.2-2.1-4.8-4.9-4.8-3.9 0-5.5 2.8-5.7 6.2zM230.9 30.3V17.7c0-3.4-1.2-5.2-3.9-5.2-2.6 0-5.2 2.3-5.3 6.7v10.9h-3.6V17.7c0-3.4-1.2-5.2-3.9-5.2s-5.2 2.3-5.2 6.7v10.9h-3.6V11.5c0-2 .5-2 3.6-2v3.6c1.8-2.7 4.2-3.9 6.8-3.9 2.9 0 4.9 1.5 5.6 4.1 2.2-3.2 4.6-4.1 7.2-4.1 3.9 0 5.9 2.6 5.9 6.8v12.3c0 2-.4 2-3.6 2zM242.1 5.1c-1.8 0-2.5-.9-2.5-2.6 0-1.6.7-2.6 2.5-2.6s2.6.9 2.6 2.6c0 1.8-.8 2.6-2.6 2.6zm-1.9 25V11.5c0-2 .5-2 3.6-2v20.7h-3.6zM255.6 18.5l5.8-.7v-.1c-.2-3.9-2.6-5.2-6-5.2-1.8 0-3.5.6-5.1 1.2v-1.3c0-2.1 3.8-3.2 6.6-3.2 3.2 0 7.7 1.1 8.1 8.1l.8 11c.1 1.9-.6 1.9-3.8 1.9l-.3-4.1c-1.5 2.7-3.8 4.4-7.3 4.4-4.4 0-6.2-3.2-6.2-6.2.2-3.1 2.4-5.2 7.4-5.8zm.4 9.1c3.3 0 5.3-3.7 5.5-7.1l-5.5.7c-2 .3-3.3 1.3-3.3 3 0 2 1 3.4 3.3 3.4zM285.9 30.3V18c0-3.5-1.7-5.5-4.8-5.5-3 0-6.1 2.3-6.1 6.7v10.9h-3.6V11.5c0-2 .5-2 3.6-2v3.8c1.8-2.7 4.7-4.1 7.6-4.1 4.4 0 6.9 2.7 6.9 7.1v12c-.1 2-.5 2-3.6 2zM311.7 30.1V6.4h-8.8V2.6H323c1.5 0 1.5 1.3 1.5 3.8h-8.9v23.7h-3.9zM323.8 30.1c-.1-.9 0-2.2.3-2.9l11.3-14.4h-10.7c0-2.3 0-3.3 1.3-3.3h14.5c.1.9 0 2.2-.3 2.9l-11.3 14.4h11.9v3.3h-17zM351 18.5l5.8-.7v-.1c-.2-3.9-2.6-5.2-6-5.2-1.8 0-3.5.6-5.1 1.2v-1.3c0-2.1 3.8-3.2 6.6-3.2 3.2 0 7.7 1.1 8.1 8.1l.8 11c.1 1.9-.6 1.9-3.8 1.9l-.3-4.1c-1.5 2.7-3.8 4.4-7.3 4.4-4.4 0-6.2-3.2-6.2-6.2.3-3.1 2.5-5.2 7.4-5.8zm.4 9.1c3.3 0 5.3-3.7 5.5-7.1l-5.5.7c-2 .3-3.3 1.3-3.3 3 0 2 1.1 3.4 3.3 3.4zM371.1 12.9v8.4c0 3.9 1 5.8 4.2 5.8 1.5 0 2.8-.3 3.9-.9v1.3c0 2.4-3.3 3-5.2 3-3.7 0-6.5-1.7-6.5-8.3v-9.5l-3-1.2c0-.6.3-1.5.7-2h2.3V6.9c0-2 .4-2 3.6-2v4.7h7c1.4 0 1.4 1 1.4 3.3h-8.4zM382 30.1c-.1-.9 0-2.2.3-2.9l11.3-14.4h-10.7c0-2.3 0-3.3 1.3-3.3h14.5c.1.9 0 2.2-.3 2.9L387 26.8h11.9v3.3H382zM421.3 28.9c0 1.2-1.8 1.7-3.1 1.7-1.9 0-2.6-.5-4.1-2.7l-4.4-6h-2.8v8.3h-3.6V4.5c0-2 .5-2 3.6-2v16.3h2.7c2.4-2.3 5.1-6.3 6.8-9.1h4.1v.5c-2 3.1-4.7 6.9-7.7 9.8l4.9 6.1c.9 1.2 2 1.9 3.3 1.9h.4v.9zM426.8 5.1c-1.8 0-2.5-.9-2.5-2.6 0-1.6.7-2.6 2.5-2.6s2.6.9 2.6 2.6c-.1 1.8-.8 2.6-2.6 2.6zm-2 25V11.5c0-2 .5-2 3.6-2v20.7h-3.6zM448.8 30.3V18c0-3.5-1.7-5.5-4.8-5.5-3 0-6.1 2.3-6.1 6.7v10.9h-3.6V11.5c0-2 .5-2 3.6-2v3.8c1.8-2.7 4.7-4.1 7.6-4.1 4.4 0 6.9 2.7 6.9 7.1v12c0 2-.4 2-3.6 2z"/></g></symbol><symbol viewBox="5.0 -6.6 100.0 89.1" id="icon-email"><path d="M0 0v66h100V0H0zm92.72 4L50 40.373 7.28 4h85.44zM4 6.46l30.044 25.575L4 60.312V6.46zM8.043 62L37.11 34.645 50 45.617l12.89-10.973L91.958 62H8.043zM96 60.312L65.956 32.035 96 6.46v53.852z"/></symbol><symbol viewBox="0 0 512 512" id="icon-facebook"><path d="M296.296 512H200.36V256h-64v-88.225l64-.03-.104-51.975C200.256 43.794 219.773 0 304.556 0h70.588v88.242H331.03c-33.017 0-34.605 12.328-34.605 35.342l-.13 44.162h79.345l-9.354 88.225-69.926.03-.064 256z"/></symbol><symbol viewBox="0 0 86.7 75" id="icon-vimeo"><path d="M86.7 17.4c-.4 8.4-6.3 20-17.7 34.7C57.2 67.3 47.2 75 39.1 75c-5.1 0-9.3-4.7-12.8-14-2.3-8.6-4.7-17.1-7-25.7-2.6-9.3-5.4-14-8.4-14-.6 0-2.9 1.4-6.8 4.1L0 20.2c4.3-3.8 8.5-7.5 12.7-11.3 5.7-4.9 10-7.5 12.9-7.8 6.7-.6 10.9 4 12.5 13.8 1.7 10.7 2.9 17.3 3.5 19.9 1.9 8.8 4.1 13.3 6.4 13.3 1.8 0 4.5-2.9 8.2-8.6 3.6-5.7 5.6-10.1 5.8-13.1.5-4.9-1.4-7.4-5.8-7.4-2.1 0-4.2.5-6.4 1.4C53.9 6.4 62.1-.4 74.1 0c8.9.3 13.1 6.1 12.6 17.4z"/></symbol><symbol viewBox="0 0 51 50" id="laurel-1"><g fill="#FFF"><path d="M49.5 29.1c1.2-.6 1.5-2.2 1.5-2.2s-1.8-.2-2.9.7c-.3.3-.6.7-.9 1.1.2-.9.3-1.8.4-2.7.4-.1 1.4-.3 2.3-1.1 1-.8 1.1-2.4 1.1-2.4s-1.8.1-2.7 1.1c-.3.3-.5.8-.7 1.2 0-.9 0-1.9-.1-2.8.4-.1 1.3-.5 2.1-1.4.8-1 .7-2.5.7-2.5s-1.7.4-2.4 1.6c-.2.4-.4.9-.4 1.4-.1-1-.4-2-.6-2.9.3-.2 1.2-.7 1.8-1.8.7-1.1.2-2.5.2-2.5s-1.6.7-2.1 1.9c-.2.4-.2 1.1-.2 1.6-.3-1-.7-2-1.2-2.9.3-.2 1-.9 1.4-2 .4-1.1-.2-2.5-.2-2.5s-1.4.9-1.7 2.2c-.1.4 0 1.1.1 1.5-.5-.9-1-1.8-1.6-2.7.3-.3.8-1 1-2.1.2-1.2-.7-2.4-.7-2.4s-1.2 1.1-1.2 2.4c0 .4.1.9.3 1.4-.6-.8-1.3-1.5-2.1-2.2.3-.3.7-1.1.7-2.2 0-1.2-1-2.2-1-2.2s-1 1.3-.8 2.5c.1.5.4 1.1.7 1.5-.9-.8-1.7-1.4-2.5-1.9.1-.3.4-1.2.2-2.4-.2-1.1-1.4-1.9-1.4-1.9s-.7 1.4-.3 2.6c.2.5.6 1.1 1 1.4-1.1-.7-2-1.2-2.9-1.5.1-.3.2-1.2-.2-2.3C33.9.5 32.6 0 32.6 0s-.4 1.5.1 2.5c.3.5.9 1 1.3 1.3-.6-.2-1.1-.4-1.5-.5-.2-.2-.8-.9-1.6-1.1-.7-.1-1.8.3-1.8.3s.5.7 1.6 1.1c.8.3 1.6-.1 1.8-.2.5.2 1.3.5 2.1.9-.4-.1-1.5-.2-2.1 0-1.1.4-1.8 1.7-1.8 1.7s1.3.5 2.3 0c1.1-.6 1.7-1.4 1.8-1.6.9.4 1.9 1 3 1.7-.5-.2-1.3-.4-1.9-.3-1.2.2-2.2 1.4-2.2 1.4s1.2.7 2.3.4c1.2-.4 1.8-1.1 2-1.3.8.6 1.7 1.2 2.5 2l.2.2c-.4-.2-1.3-.7-1.9-.7-1.2 0-2.4 1-2.4 1s1.1 1 2.3.8c1.2-.2 2.1-.8 2.3-.9.8.8 1.6 1.7 2.3 2.7-.4-.3-1.1-.9-1.7-1-1.2-.3-2.6.6-2.6.6s.9 1.1 2.1 1.2c1.3.1 2.2-.4 2.4-.5.6.9 1.1 1.8 1.6 2.9-.4-.4-.9-.9-1.4-1.1-1.2-.5-2.7.2-2.7.2s.7 1.3 1.9 1.6c1.2.3 2.1 0 2.5-.1.4.9.8 1.9 1.1 3-.3-.4-.7-1-1.1-1.3-1.1-.7-2.8-.3-2.8-.3s.5 1.5 1.7 1.9c1.1.5 2 .4 2.4.4.3 1 .4 2.1.6 3.1-.2-.5-.5-1.1-.9-1.5-1-.9-2.7-.8-2.7-.8s.2 1.6 1.3 2.2c1 .6 2 .8 2.4.8.1 1 .1 2.1 0 3.1-.1-.5-.3-1.3-.7-1.7-.8-1.1-2.6-1.3-2.6-1.3s0 1.6.9 2.5c.9.8 1.8 1.1 2.3 1.2-.1.9-.3 1.9-.5 2.8 0-.5-.1-1.2-.4-1.6-.7-1.2-2.4-1.8-2.4-1.8s-.3 1.6.5 2.7c.7 1 1.6 1.4 2 1.6-.3.9-.6 1.8-1 2.7.1-.6.1-1.2-.1-1.7-.4-1.3-2.1-2.2-2.1-2.2s-.6 1.6 0 2.8c.6 1.1 1.4 1.7 1.7 2-.4.8-.9 1.6-1.4 2.3.1-.5.3-1.1.2-1.6-.3-1.5-1.8-2.7-1.8-2.7s-.9 1.5-.5 2.8c.4 1.2 1 1.9 1.4 2.3-.5.7-1.1 1.4-1.7 2 .2-.5.4-1 .4-1.5 0-1.5-1.2-2.9-1.2-2.9s-1.1 1.3-1 2.7c.2 1.2.6 2.1.9 2.5-.6.6-1.3 1.2-2 1.7.3-.4.6-.9.7-1.4.3-1.5-.7-3.1-.7-3.1s-1.4 1.1-1.4 2.6c-.1 1.2.3 2.2.5 2.7-.8.5-1.5 1-2.3 1.3.4-.4.8-.9 1-1.3.6-1.4-.2-3.3-.2-3.3s-1.6.9-1.9 2.3c-.3 1.3-.1 2.3 0 2.8-.8.3-1.6.6-2.4.8.4-.3.9-.7 1.2-1.1.8-1.3.4-3.3.4-3.3s-1.7.6-2.3 2c-.5 1.1-.5 2.1-.5 2.7-1.1.2-2.2.5-3.1.8-.6.2-1.2.5-1.7.7-.5-.2-1.1-.5-1.7-.7-.9-.3-2-.6-3.1-.8 0-.6 0-1.6-.5-2.7-.6-1.4-2.3-2-2.3-2s-.4 2 .4 3.3c.2.4.7.8 1.2 1.1-.8-.2-1.6-.5-2.4-.8.1-.5.3-1.6 0-2.8-.3-1.4-1.9-2.3-1.9-2.3s-.7 1.9-.2 3.3c.2.5.6.9 1 1.3-.8-.4-1.5-.8-2.3-1.3.2-.5.6-1.4.5-2.7-.1-1.4-1.4-2.6-1.4-2.6s-1 1.7-.7 3.1c.1.4.4.9.7 1.4-.7-.5-1.3-1.1-2-1.7.3-.4.8-1.3.9-2.5.2-1.4-1-2.7-1-2.7s-1.3 1.4-1.2 2.9c0 .5.2 1 .4 1.5-.6-.6-1.2-1.3-1.7-2 .4-.4 1-1.1 1.4-2.3.2-1.3-.7-2.8-.7-2.8S7.5 33 7.3 34.4c-.1.5 0 1.1.2 1.6-.5-.7-1-1.5-1.4-2.3.4-.3 1.2-.9 1.7-2 .6-1.2 0-2.8 0-2.8s-1.6.9-2.1 2.2c-.2.5-.1 1.2-.1 1.7-.4-.9-.7-1.8-1-2.7.4-.2 1.3-.7 2-1.6.8-1.1.5-2.7.5-2.7s-1.7.6-2.4 1.8c-.2.4-.3 1.1-.4 1.6-.3-.9-.4-1.9-.5-2.8.4-.1 1.4-.4 2.3-1.2 1-.9.9-2.5.9-2.5S5.4 23 4.5 24c-.3.4-.5 1.1-.7 1.7-.1-1.1-.1-2.1 0-3.1.4 0 1.4-.2 2.4-.8 1.1-.7 1.3-2.2 1.3-2.2s-1.7-.1-2.7.8c-.4.3-.7 1-.9 1.5.1-1.1.3-2.1.6-3.1.4 0 1.4.1 2.4-.4 1.2-.5 1.7-1.9 1.7-1.9s-1.7-.5-2.8.2c-.4.3-.8.8-1.1 1.3.3-1 .7-2 1.1-3 .4.1 1.3.3 2.5.1 1.2-.3 1.9-1.6 1.9-1.6s-1.6-.6-2.7-.2c-.5.2-1 .7-1.4 1.1.5-1 1-2 1.6-2.8.3.1 1.2.6 2.4.5 1.2-.1 2.1-1.2 2.1-1.2s-1.4-.9-2.6-.6c-.6.1-1.3.7-1.7 1 .7-1 1.5-1.9 2.3-2.7.2.2 1 .8 2.3.9 1.2.2 2.3-.8 2.3-.8s-1.2-1.1-2.4-1c-.6 0-1.4.4-1.9.7l.2-.2c.9-.8 1.7-1.5 2.5-2 .2.2.9.9 2 1.3 1.1.3 2.3-.4 2.3-.4s-1-1.2-2.2-1.4c-.6-.1-1.5.2-1.9.3 1.1-.7 2.1-1.3 3-1.7.1.2.6 1 1.8 1.6 1 .5 2.3 0 2.3 0s-.7-1.4-1.8-1.7c-.6-.2-1.7 0-2.1 0 .8-.4 1.6-.7 2.1-.9.2.1 1 .5 1.8.2 1.1-.4 1.6-1.1 1.6-1.1S21 2 20.3 2.1c-.8.1-1.4.8-1.6 1.1-.4.1-.9.3-1.5.5.4-.3 1-.8 1.3-1.3.5-1 .1-2.5.1-2.5S17.3.4 17 1.5c-.4 1.1-.2 2.1-.2 2.3-.8.4-1.8.9-2.9 1.5.4-.4.8-.9 1-1.4.4-1.1-.3-2.6-.3-2.6s-1.4 1-1.6 2.1c-.2 1.2.1 2.1.2 2.4-.8.5-1.7 1.2-2.5 1.9.3-.4.6-1 .7-1.5.2-1.2-.8-2.5-.8-2.5s-1.1 1-1 2.2c0 1.2.4 2 .6 2.3-.7.6-1.4 1.4-2.1 2.2.2-.4.3-1 .3-1.4 0-1.2-1.2-2.4-1.2-2.4s-.8 1.1-.6 2.3c.2 1.1.8 1.8 1 2.1-.6.9-1.1 1.7-1.6 2.7.1-.5.2-1.1.1-1.6-.3-1.2-1.7-2.2-1.7-2.2s-.7 1.3-.2 2.5c.4 1.1 1.1 1.8 1.4 2-.4.9-.8 1.9-1.2 2.9 0-.5 0-1.2-.2-1.6-.5-1.2-2.1-1.9-2.1-1.9s-.5 1.5.2 2.5c.6 1 1.4 1.6 1.8 1.8-.3.9-.5 1.9-.6 2.9-.1-.5-.2-1.1-.4-1.4C2.4 18.5.7 18 .7 18s-.2 1.6.7 2.5c.8.9 1.7 1.3 2.1 1.4-.1.9-.1 1.9-.1 2.8-.2-.4-.4-.9-.7-1.2-.9-1-2.7-1.1-2.7-1.1s.1 1.6 1.1 2.4c.9.8 1.9 1.1 2.3 1.2.1.9.2 1.8.4 2.7-.2-.4-.6-.9-.9-1.1-1.1-.9-2.9-.7-2.9-.7s.4 1.6 1.5 2.2c1.1.6 2.1.7 2.5.7.2.9.5 1.7.8 2.5-.3-.4-.7-.7-1-.9-1.2-.7-3-.2-3-.2s.7 1.5 1.9 2c1.2.4 2.1.3 2.6.2.4.8.8 1.6 1.3 2.4-.4-.3-.8-.7-1.3-.8-1.4-.4-3.1.4-3.1.4s.9 1.4 2.3 1.6c1.3.2 2.3-.1 2.7-.2.5.8 1.1 1.5 1.7 2.2-.5-.3-1-.5-1.5-.6-1.5-.2-3 .9-3 .9s1.2 1.3 2.6 1.2c1.3 0 2.3-.5 2.7-.7.7.7 1.3 1.3 2 1.8-.5-.2-1.1-.4-1.6-.3-1.5.1-2.9 1.5-2.9 1.5s1.4 1.1 2.8.8c1.3-.3 2.2-.9 2.6-1.2.7.5 1.4 1 2.2 1.4-.5-.1-1-.1-1.5 0-1.5.3-2.6 2-2.6 2s1.6.8 3 .3c1.2-.5 2-1.2 2.3-1.6.8.4 1.6.7 2.3.9-.5 0-1 .1-1.4.2-1.4.6-2.3 2.5-2.3 2.5s1.8.5 3.1-.2c1.2-.7 1.8-1.6 2.1-2.1 1.8.3 3.4.8 4.6 1.4-2.3 1.2-3.2 2.3-3.2 2.3l.8.7s1-1.3 3.4-2.5c2.3 1.2 3.4 2.5 3.4 2.5l.8-.7s-.9-1.1-3.2-2.3c1.2-.6 2.8-1.1 4.6-1.4.3.4.9 1.4 2.1 2.1 1.3.8 3.1.2 3.1.2s-.8-1.9-2.3-2.5c-.4-.2-.9-.2-1.4-.2.8-.2 1.5-.6 2.3-.9.3.4 1.1 1.1 2.3 1.6 1.4.5 3-.3 3-.3s-1.1-1.7-2.6-2c-.4-.1-1 0-1.5 0 .7-.4 1.4-.9 2.2-1.4.4.3 1.3.9 2.6 1.2 1.4.3 2.8-.8 2.8-.8s-1.4-1.4-2.9-1.5c-.5 0-1 .1-1.6.3.7-.6 1.4-1.2 2-1.8.4.2 1.4.7 2.7.7 1.4 0 2.6-1.2 2.6-1.2s-1.6-1.1-3-.9c-.5.1-1 .3-1.5.6.6-.7 1.2-1.4 1.7-2.1.4.2 1.4.4 2.7.2 1.4-.2 2.3-1.6 2.3-1.6s-1.6-.9-2.9-.5c-.4.1-.9.5-1.3.8.5-.8.9-1.5 1.3-2.4.5.1 1.5.2 2.6-.2 1.3-.4 1.9-2 1.9-2s-1.8-.5-3 .2c-.4.2-.7.6-1 .9.3-.8.6-1.6.8-2.5.4 0 1.4-.1 2.5-.7zM15 13.6c-.1.1-.3.1-.6.1-.7 0-1.2-.4-1.2-1.2 0-.8.5-1.3 1.3-1.3.3 0 .5.1.6.1l-.1.3c-.1-.1-.3-.1-.5-.1-.6 0-.9.4-.9 1s.3 1 .9 1c.2 0 .4 0 .5-.1v.2zM17.3 12.5c0 .8-.5 1.3-1.1 1.3-.6 0-1.1-.5-1.1-1.2 0-.8.5-1.3 1.1-1.3.6 0 1.1.5 1.1 1.2zm-1.9 0c0 .5.3 1 .8 1s.8-.5.8-1-.2-1-.8-1c-.6 0-.8.5-.8 1zM19.6 12.7v-1l-.3.9-.4 1.2h-.2l-.4-1.1-.3-.9v1.1l-.1 1h-.3l.2-2.4h.4l.4 1.2c.1.3.2.6.2.8.1-.2.1-.5.3-.8l.4-1.2h.4l.1 2.4h-.3l-.1-1.2zM22.4 12.7v-1l-.3.9-.4 1.2h-.2l-.5-1.2-.3-.9v1.1l-.1 1h-.3l.2-2.4h.4l.4 1.2c.1.3.2.6.2.8.1-.2.1-.5.3-.8l.4-1.2h.4l.1 2.4h-.3v-1.1zM24.8 13.7v-2.4h.3l.8 1.2c.2.3.3.5.4.8v-2h.3v2.4h-.3l-.8-1.2c-.2-.3-.3-.5-.4-.8v2h-.3zM24.3 12.6h-.9v.9h1v.3H23v-2.4h1.3v.3h-1v.8h.9v.1zM27.1 11.3h.7c.4 0 .8.1 1 .3.2.2.3.5.3.9s-.1.7-.3.9c-.2.2-.6.3-1.1.3h-.6v-2.4zm.3 2.2h.3c.7 0 1-.4 1-1s-.3-.9-1-.9h-.4v1.9zM29.7 13l-.2.8h-.3l.8-2.4h.4l.8 2.4h-.3l-.4-.8h-.8zm.8-.3l-.3-.7c-.1-.2-.1-.3-.1-.4 0 .1-.1.3-.1.4l-.2.7h.7zM31.6 11.6h-.7v-.3h1.8v.3H32v2.1h-.3v-2.1zM33.1 11.3v2.4h-.3v-2.4h.3zM35.6 12.5c0 .8-.5 1.3-1.1 1.3-.6 0-1.1-.5-1.1-1.2 0-.8.5-1.3 1.1-1.3.7 0 1.1.5 1.1 1.2zm-1.9 0c0 .5.3 1 .8 1s.8-.5.8-1-.2-1-.8-1c-.5 0-.8.5-.8 1zM35.9 13.7v-2.4h.3l.8 1.2c.2.3.3.5.4.8v-2h.3v2.4h-.3l-.8-1.2c-.2-.3-.3-.5-.4-.8v2h-.3zM12.6 20.5c.2.1.5.2.7.2.4 0 .7-.2.7-.5s-.2-.5-.6-.6c-.5-.2-.8-.5-.8-.9 0-.5.4-.9 1-.9.3 0 .6.1.7.2l-.1.3c-.1-.1-.3-.2-.6-.2-.4 0-.6.3-.6.5 0 .3.2.4.6.6.5.2.8.5.8.9 0 .5-.4.9-1.1.9-.3 0-.6-.1-.8-.2l.1-.3zM17 19.8c0 .8-.6 1.2-1.1 1.2-.6 0-1.1-.5-1.1-1.2 0-.8.5-1.2 1.1-1.2.6 0 1.1.5 1.1 1.2zm-1.9 0c0 .5.3.9.7.9.4 0 .7-.4.7-.9 0-.4-.2-.9-.7-.9-.4.1-.7.5-.7.9zM19.3 20.4v.6h-.4v-.4c-.1.2-.3.4-.8.4-.4 0-.8-.2-.8-1v-1.3h.4V20c0 .4.1.7.5.7.3 0 .5-.2.5-.4V18.7h.4v1.7zM19.8 19.3v-.6h.4v.4c.1-.2.4-.4.8-.4.3 0 .8.2.8 1V21h-.4v-1.3c0-.4-.1-.7-.5-.7-.3 0-.5.2-.6.4V21h-.4v-1.7zM24.3 17.6V21H24v-.4c-.1.3-.4.4-.8.4-.6 0-1-.5-1-1.2 0-.8.5-1.2 1-1.2.3 0 .6.2.7.3v-1.4h.4zm-.4 2v-.2c-.1-.3-.3-.5-.6-.5-.4 0-.7.4-.7.9s.2.8.7.8c.3 0 .5-.2.6-.5v-.5zM27.4 19.5h-1.2v1.1h1.4v.4h-1.8v-3.2h1.7v.3h-1.3v1h1.2v.4zM29.9 17.6V21h-.4v-.4c-.1.3-.4.4-.8.4-.6 0-1-.5-1-1.2 0-.8.5-1.2 1-1.2.3 0 .6.2.7.3v-1.4h.5zm-.4 2v-.2c-.1-.3-.3-.5-.6-.5-.4 0-.7.4-.7.9s.2.8.7.8c.3 0 .5-.2.6-.5v-.5zM31 18.1c0 .1-.1.3-.3.3-.1 0-.3-.1-.3-.3 0-.1.1-.3.3-.3.2 0 .3.1.3.3zm-.5 2.9v-2.3h.4V21h-.4zM32 18v.7h.6v.3H32v1.2c0 .3.1.4.3.4h.2v.3c-.1 0-.2.1-.4.1s-.3-.1-.4-.2c-.1-.1-.2-.3-.2-.6V19h-.4v-.3h.4v-.5l.5-.2zM33.4 18.1c0 .1-.1.3-.3.3-.1 0-.3-.1-.3-.3 0-.1.1-.3.3-.3.2 0 .3.1.3.3zm-.5 2.9v-2.3h.4V21h-.4zM33.9 19.3v-.6h.4v.4c.1-.2.4-.4.8-.4.3 0 .8.2.8 1V21h-.4v-1.3c0-.4-.1-.7-.5-.7-.3 0-.5.2-.6.4V21H34v-1.7zM38.4 18.7v1.9c0 .5-.1.8-.3 1-.2.2-.5.3-.8.3-.3 0-.6-.1-.8-.2l.1-.3c.2.1.4.2.7.2.4 0 .7-.2.7-.8v-.3c-.1.2-.4.4-.7.4-.6 0-1-.5-1-1.1 0-.8.5-1.2 1-1.2.4 0 .6.2.7.4v-.3h.4zm-.4.9v-.2c-.1-.2-.3-.4-.6-.4-.4 0-.7.3-.7.9 0 .4.2.8.7.8.3 0 .5-.2.6-.4v-.7z"/><path d="M13.9 26.7c-.2.1-.5.2-.8.2-.9 0-1.6-.6-1.6-1.6s.7-1.7 1.7-1.7c.4 0 .6.1.8.1l-.2.3c-.2-.1-.4-.1-.6-.1-.7 0-1.2.5-1.2 1.3s.4 1.3 1.2 1.3c.3 0 .5-.1.7-.1v.3zM14.6 23.6v3.2h-.4v-3.2h.4zM15.1 26.8v-3.2h.4l1 1.6c.2.4.4.7.6 1v-2.6h.4v3.2H17l-1-1.6c-.2-.4-.4-.7-.6-1.1v2.7h-.3zM19.6 25.3h-1.2v1.1h1.4v.3H18v-3.2h1.7v.3h-1.3v1h1.2v.5zM22.7 25.4c0-.4-.1-1 0-1.4-.1.4-.2.8-.4 1.2l-.6 1.5h-.3l-.5-1.5c-.2-.4-.3-.9-.4-1.2 0 .4 0 .9-.1 1.4l-.1 1.4h-.4l.2-3.2h.5l.5 1.5c.1.4.2.7.3 1.1.1-.3.2-.7.3-1.1l.6-1.5h.7l.2 3.2h-.4l-.1-1.4zM24.1 25.8l-.3 1h-.4l1.1-3.2h.5l1.1 3.2h-.4l-.3-1h-1.3zm1-.4l-.3-.9c-.1-.2-.1-.4-.2-.6 0 .2-.1.4-.2.6l-.3.9h1zM26.9 26.3c.2.1.5.2.7.2.4 0 .7-.2.7-.5s-.2-.5-.6-.6c-.5-.2-.8-.5-.8-.9 0-.5.4-.9 1-.9.3 0 .6.1.7.2l-.1.2c-.1-.1-.3-.2-.6-.2-.4 0-.6.3-.6.5 0 .3.2.4.6.6.5.2.8.5.8.9 0 .5-.4.9-1.1.9-.3 0-.6-.1-.8-.2l.1-.2zM31.8 25.1c0 1.1-.7 1.7-1.5 1.7s-1.4-.7-1.4-1.6c0-1 .6-1.7 1.5-1.7.8 0 1.4.7 1.4 1.6zm-2.5.1c0 .7.4 1.3 1 1.3.7 0 1-.6 1-1.3 0-.6-.3-1.3-1-1.3s-1 .6-1 1.3zM32.5 23.6v1.9c0 .7.3 1 .7 1 .5 0 .8-.3.8-1v-1.9h.4v1.9c0 1-.5 1.4-1.2 1.4s-1.1-.4-1.1-1.4v-1.9h.4zM35.5 23.9h-1v-.3h2.4v.3h-1v2.8h-.4v-2.8zM37.4 23.6v1.3h1.5v-1.3h.4v3.2h-.4v-1.5h-1.5v1.5H37v-3.2h.4zM17.7 29.3h1.7v.3h-1.3v1.1h1.2v.3h-1.2v1.4h-.4v-3.1zM21.5 31h-1.2v1.1h1.4v.3h-1.8v-3.2h1.7v.3h-1.3v1h1.2v.5z"/><path d="M21.8 32c.2.1.5.2.7.2.4 0 .7-.2.7-.5s-.2-.5-.6-.6c-.5-.2-.8-.5-.8-.9 0-.5.4-.9 1-.9.3 0 .6.1.7.2l-.1.3c-.1-.1-.3-.2-.6-.2-.4 0-.6.3-.6.5 0 .3.2.4.6.6.5.2.8.5.8.9 0 .5-.4.9-1.1.9-.3 0-.6-.1-.8-.2l.1-.3zM24.6 29.7h-1v-.3H26v.3h-1v2.8h-.4v-2.8zM26.5 29.3v3.2h-.4v-3.2h.4zM27.7 32.5l-1-3.2h.4l.5 1.6c.1.4.3.8.3 1.2.1-.4.2-.8.4-1.2l.5-1.6h.4l-1.1 3.2h-.4zM29.6 31.5l-.3 1h-.4l1.1-3.2h.5l1.1 3.2h-.4l-.3-1h-1.3zm1.1-.3l-.3-.9c-.1-.2-.1-.4-.2-.6 0 .2-.1.4-.2.6l-.3.9h1zM31.8 29.3h.4v2.8h1.4v.3h-1.8v-3.1zM21.4 38.3v-.2l.3-.3c.7-.7 1.1-1.1 1.1-1.5 0-.3-.1-.6-.6-.6-.3 0-.5.1-.6.2l-.1-.3c.2-.2.5-.3.8-.3.6 0 .9.4.9.9s-.4 1-1 1.6l-.2.2h1.3v.3h-1.9zM25.5 36.8c0 1-.4 1.5-1 1.5s-1-.5-1-1.5.4-1.5 1-1.5 1 .6 1 1.5zm-1.6 0c0 .8.2 1.2.6 1.2.4 0 .6-.5.6-1.2s-.2-1.2-.6-1.2c-.4 0-.6.4-.6 1.2zM26.5 35.7l-.6.3-.1-.3.6-.3h.3v2.9h-.4v-2.6zM29.4 35.7h-1.1l-.1.8h.2c.2 0 .5 0 .6.2.2.1.4.4.4.8 0 .6-.5 1-1.1 1-.3 0-.6-.1-.7-.2l.1-.3c.1.1.4.2.6.2.4 0 .7-.2.7-.6 0-.4-.3-.6-.8-.6h-.4l.2-1.4h1.4v.1z"/></g></symbol><symbol viewBox="0 0 51 50" id="laurel-2"><g fill="#FFF"><path d="M49.5 29.1c1.2-.6 1.5-2.2 1.5-2.2s-1.8-.2-2.9.7c-.3.3-.6.7-.9 1.1.2-.9.3-1.8.4-2.7.4-.1 1.4-.3 2.3-1.1 1-.8 1.1-2.4 1.1-2.4s-1.8.1-2.7 1.1c-.3.3-.5.8-.7 1.2 0-.9 0-1.9-.1-2.8.4-.1 1.3-.5 2.1-1.4.8-1 .7-2.5.7-2.5s-1.7.4-2.4 1.6c-.2.4-.4.9-.4 1.4-.1-1-.4-2-.6-2.9.3-.2 1.2-.7 1.8-1.8.7-1.1.2-2.5.2-2.5s-1.6.7-2.1 1.9c-.2.4-.2 1.1-.2 1.6-.3-1-.7-2-1.2-2.9.3-.2 1-.9 1.4-2 .4-1.1-.2-2.5-.2-2.5s-1.4.9-1.7 2.2c-.1.4 0 1.1.1 1.5-.5-.9-1-1.8-1.6-2.7.3-.3.8-1 1-2.1.2-1.2-.7-2.4-.7-2.4s-1.2 1.1-1.2 2.4c0 .4.1.9.3 1.4-.6-.8-1.3-1.5-2.1-2.2.3-.3.7-1.1.7-2.2 0-1.2-1-2.2-1-2.2s-1 1.3-.8 2.5c.1.5.4 1.1.7 1.5-.9-.8-1.7-1.4-2.5-1.9.1-.3.4-1.2.2-2.4-.2-1.1-1.4-1.9-1.4-1.9s-.7 1.4-.3 2.6c.2.5.6 1.1 1 1.4-1.1-.7-2-1.2-2.9-1.5.1-.3.2-1.2-.2-2.3C33.9.5 32.6 0 32.6 0s-.4 1.5.1 2.5c.3.5.9 1 1.3 1.3-.6-.2-1.1-.4-1.5-.5-.2-.2-.8-.9-1.6-1.1-.7-.1-1.8.3-1.8.3s.5.7 1.6 1.1c.8.3 1.6-.1 1.8-.2.5.2 1.3.5 2.1.9-.4-.1-1.5-.2-2.1 0-1.1.4-1.8 1.7-1.8 1.7s1.3.5 2.3 0c1.1-.6 1.7-1.4 1.8-1.6.9.4 1.9 1 3 1.7-.5-.2-1.3-.4-1.9-.3-1.2.2-2.2 1.4-2.2 1.4s1.2.7 2.3.4c1.2-.4 1.8-1.1 2-1.3.8.6 1.7 1.2 2.5 2l.2.2c-.4-.2-1.3-.7-1.9-.7-1.2 0-2.4 1-2.4 1s1.1 1 2.3.8c1.2-.2 2.1-.8 2.3-.9.8.8 1.6 1.7 2.3 2.7-.4-.3-1.1-.9-1.7-1-1.2-.3-2.6.6-2.6.6s.9 1.1 2.1 1.2c1.3.1 2.2-.4 2.4-.5.6.9 1.1 1.8 1.6 2.9-.4-.4-.9-.9-1.4-1.1-1.2-.5-2.7.2-2.7.2s.7 1.3 1.9 1.6c1.2.3 2.1 0 2.5-.1.4.9.8 1.9 1.1 3-.3-.4-.7-1-1.1-1.3-1.1-.7-2.8-.3-2.8-.3s.5 1.5 1.7 1.9c1.1.5 2 .4 2.4.4.3 1 .4 2.1.6 3.1-.2-.5-.5-1.1-.9-1.5-1-.9-2.7-.8-2.7-.8s.2 1.6 1.3 2.2c1 .6 2 .8 2.4.8.1 1 .1 2.1 0 3.1-.1-.5-.3-1.3-.7-1.7-.8-1.1-2.6-1.3-2.6-1.3s0 1.6.9 2.5c.9.8 1.8 1.1 2.3 1.2-.1.9-.3 1.9-.5 2.8 0-.5-.1-1.2-.4-1.6-.7-1.2-2.4-1.8-2.4-1.8s-.3 1.6.5 2.7c.7 1 1.6 1.4 2 1.6-.3.9-.6 1.8-1 2.7.1-.6.1-1.2-.1-1.7-.4-1.3-2.1-2.2-2.1-2.2s-.6 1.6 0 2.8c.6 1.1 1.4 1.7 1.7 2-.4.8-.9 1.6-1.4 2.3.1-.5.3-1.1.2-1.6-.3-1.5-1.8-2.7-1.8-2.7s-.9 1.5-.5 2.8c.4 1.2 1 1.9 1.4 2.3-.5.7-1.1 1.4-1.7 2 .2-.5.4-1 .4-1.5 0-1.5-1.2-2.9-1.2-2.9s-1.1 1.3-1 2.7c.2 1.2.6 2.1.9 2.5-.6.6-1.3 1.2-2 1.7.3-.4.6-.9.7-1.4.3-1.5-.7-3.1-.7-3.1s-1.4 1.1-1.4 2.6c-.1 1.2.3 2.2.5 2.7-.8.5-1.5 1-2.3 1.3.4-.4.8-.9 1-1.3.6-1.4-.2-3.3-.2-3.3s-1.6.9-1.9 2.3c-.3 1.3-.1 2.3 0 2.8-.8.3-1.6.6-2.4.8.4-.3.9-.7 1.2-1.1.8-1.3.4-3.3.4-3.3s-1.7.6-2.3 2c-.5 1.1-.5 2.1-.5 2.7-1.1.2-2.2.5-3.1.8-.6.2-1.2.5-1.7.7-.5-.2-1.1-.5-1.7-.7-.9-.3-2-.6-3.1-.8 0-.6 0-1.6-.5-2.7-.6-1.4-2.3-2-2.3-2s-.4 2 .4 3.3c.2.4.7.8 1.2 1.1-.8-.2-1.6-.5-2.4-.8.1-.5.3-1.6 0-2.8-.3-1.4-1.9-2.3-1.9-2.3s-.7 1.9-.2 3.3c.2.5.6.9 1 1.3-.8-.4-1.5-.8-2.3-1.3.2-.5.6-1.4.5-2.7-.1-1.4-1.4-2.6-1.4-2.6s-1 1.7-.7 3.1c.1.4.4.9.7 1.4-.7-.5-1.3-1.1-2-1.7.3-.4.8-1.3.9-2.5.2-1.4-1-2.7-1-2.7s-1.3 1.4-1.2 2.9c0 .5.2 1 .4 1.5-.6-.6-1.2-1.3-1.7-2 .4-.4 1-1.1 1.4-2.3.2-1.3-.7-2.8-.7-2.8S7.5 33 7.3 34.4c-.1.5 0 1.1.2 1.6-.5-.7-1-1.5-1.4-2.3.4-.3 1.2-.9 1.7-2 .6-1.2 0-2.8 0-2.8s-1.6.9-2.1 2.2c-.2.5-.1 1.2-.1 1.7-.4-.9-.7-1.8-1-2.7.4-.2 1.3-.7 2-1.6.8-1.1.5-2.7.5-2.7s-1.7.6-2.4 1.8c-.2.4-.3 1.1-.4 1.6-.3-.9-.4-1.9-.5-2.8.4-.1 1.4-.4 2.3-1.2 1-.9.9-2.5.9-2.5S5.4 23 4.5 24c-.3.4-.5 1.1-.7 1.7-.1-1.1-.1-2.1 0-3.1.4 0 1.4-.2 2.4-.8 1.1-.7 1.3-2.2 1.3-2.2s-1.7-.1-2.7.8c-.4.3-.7 1-.9 1.5.1-1.1.3-2.1.6-3.1.4 0 1.4.1 2.4-.4 1.2-.5 1.7-1.9 1.7-1.9s-1.7-.5-2.8.2c-.4.3-.8.8-1.1 1.3.3-1 .7-2 1.1-3 .4.1 1.3.3 2.5.1 1.2-.3 1.9-1.6 1.9-1.6s-1.6-.6-2.7-.2c-.5.2-1 .7-1.4 1.1.5-1 1-2 1.6-2.8.3.1 1.2.6 2.4.5 1.2-.1 2.1-1.2 2.1-1.2s-1.4-.9-2.6-.6c-.6.1-1.3.7-1.7 1 .7-1 1.5-1.9 2.3-2.7.2.2 1 .8 2.3.9 1.2.2 2.3-.8 2.3-.8s-1.2-1.1-2.4-1c-.6 0-1.4.4-1.9.7l.2-.2c.9-.8 1.7-1.5 2.5-2 .2.2.9.9 2 1.3 1.1.3 2.3-.4 2.3-.4s-1-1.2-2.2-1.4c-.6-.1-1.5.2-1.9.3 1.1-.7 2.1-1.3 3-1.7.1.2.6 1 1.8 1.6 1 .5 2.3 0 2.3 0s-.7-1.4-1.8-1.7c-.6-.2-1.7 0-2.1 0 .8-.4 1.6-.7 2.1-.9.2.1 1 .5 1.8.2 1.1-.4 1.6-1.1 1.6-1.1S21 2 20.3 2.1c-.8.1-1.4.8-1.6 1.1-.4.1-.9.3-1.5.5.4-.3 1-.8 1.3-1.3.5-1 .1-2.5.1-2.5S17.3.4 17 1.5c-.4 1.1-.2 2.1-.2 2.3-.8.4-1.8.9-2.9 1.5.4-.4.8-.9 1-1.4.4-1.1-.3-2.6-.3-2.6s-1.4 1-1.6 2.1c-.2 1.2.1 2.1.2 2.4-.8.5-1.7 1.2-2.5 1.9.3-.4.6-1 .7-1.5.2-1.2-.8-2.5-.8-2.5s-1.1 1-1 2.2c0 1.2.4 2 .6 2.3-.7.6-1.4 1.4-2.1 2.2.2-.4.3-1 .3-1.4 0-1.2-1.2-2.4-1.2-2.4s-.8 1.1-.6 2.3c.2 1.1.8 1.8 1 2.1-.6.9-1.1 1.7-1.6 2.7.1-.5.2-1.1.1-1.6-.3-1.2-1.7-2.2-1.7-2.2s-.7 1.3-.2 2.5c.4 1.1 1.1 1.8 1.4 2-.4.9-.8 1.9-1.2 2.9 0-.5 0-1.2-.2-1.6-.5-1.2-2.1-1.9-2.1-1.9s-.5 1.5.2 2.5c.6 1 1.4 1.6 1.8 1.8-.3.9-.5 1.9-.6 2.9-.1-.5-.2-1.1-.4-1.4C2.4 18.5.7 18 .7 18s-.2 1.6.7 2.5c.8.9 1.7 1.3 2.1 1.4-.1.9-.1 1.9-.1 2.8-.2-.4-.4-.9-.7-1.2-.9-1-2.7-1.1-2.7-1.1s.1 1.6 1.1 2.4c.9.8 1.9 1.1 2.3 1.2.1.9.2 1.8.4 2.7-.2-.4-.6-.9-.9-1.1-1.1-.9-2.9-.7-2.9-.7s.4 1.6 1.5 2.2c1.1.6 2.1.7 2.5.7.2.9.5 1.7.8 2.5-.3-.4-.7-.7-1-.9-1.2-.7-3-.2-3-.2s.7 1.5 1.9 2c1.2.4 2.1.3 2.6.2.4.8.8 1.6 1.3 2.4-.4-.3-.8-.7-1.3-.8-1.4-.4-3.1.4-3.1.4s.9 1.4 2.3 1.6c1.3.2 2.3-.1 2.7-.2.5.8 1.1 1.5 1.7 2.2-.5-.3-1-.5-1.5-.6-1.5-.2-3 .9-3 .9s1.2 1.3 2.6 1.2c1.3 0 2.3-.5 2.7-.7.7.7 1.3 1.3 2 1.8-.5-.2-1.1-.4-1.6-.3-1.5.1-2.9 1.5-2.9 1.5s1.4 1.1 2.8.8c1.3-.3 2.2-.9 2.6-1.2.7.5 1.4 1 2.2 1.4-.5-.1-1-.1-1.5 0-1.5.3-2.6 2-2.6 2s1.6.8 3 .3c1.2-.5 2-1.2 2.3-1.6.8.4 1.6.7 2.3.9-.5 0-1 .1-1.4.2-1.4.6-2.3 2.5-2.3 2.5s1.8.5 3.1-.2c1.2-.7 1.8-1.6 2.1-2.1 1.8.3 3.4.8 4.6 1.4-2.3 1.2-3.2 2.3-3.2 2.3l.8.7s1-1.3 3.4-2.5c2.3 1.2 3.4 2.5 3.4 2.5l.8-.7s-.9-1.1-3.2-2.3c1.2-.6 2.8-1.1 4.6-1.4.3.4.9 1.4 2.1 2.1 1.3.8 3.1.2 3.1.2s-.8-1.9-2.3-2.5c-.4-.2-.9-.2-1.4-.2.8-.2 1.5-.6 2.3-.9.3.4 1.1 1.1 2.3 1.6 1.4.5 3-.3 3-.3s-1.1-1.7-2.6-2c-.4-.1-1 0-1.5 0 .7-.4 1.4-.9 2.2-1.4.4.3 1.3.9 2.6 1.2 1.4.3 2.8-.8 2.8-.8s-1.4-1.4-2.9-1.5c-.5 0-1 .1-1.6.3.7-.6 1.4-1.2 2-1.8.4.2 1.4.7 2.7.7 1.4 0 2.6-1.2 2.6-1.2s-1.6-1.1-3-.9c-.5.1-1 .3-1.5.6.6-.7 1.2-1.4 1.7-2.1.4.2 1.4.4 2.7.2 1.4-.2 2.3-1.6 2.3-1.6s-1.6-.9-2.9-.5c-.4.1-.9.5-1.3.8.5-.8.9-1.5 1.3-2.4.5.1 1.5.2 2.6-.2 1.3-.4 1.9-2 1.9-2s-1.8-.5-3 .2c-.4.2-.7.6-1 .9.3-.8.6-1.6.8-2.5.4 0 1.4-.1 2.5-.7zM17.5 13.6l-.9-3.5h.5l.4 1.8c.1.4.2.9.3 1.2l.3-1.2.5-1.8h.4l.4 1.8c.1.4.2.8.2 1.2l.3-1.2.5-1.8h.5l-1 3.5h-.5l-.4-1.8c-.1-.5-.2-.8-.2-1.2-.1.4-.1.7-.3 1.2l-.5 1.8h-.5zM21.8 10.1v3.5h-.5v-3.5h.5zM22.6 13.6v-3.5h.5l1.1 1.8c.3.4.5.8.6 1.1 0-.5-.1-.9-.1-1.5V10h.4v3.5h-.5l-1.1-1.8c-.2-.4-.5-.8-.7-1.2v3h-.2zM26.1 13.6v-3.5h.5l1.1 1.8c.3.4.5.8.6 1.1 0-.5-.1-.9-.1-1.5V10h.4v3.5h-.5L27 11.7c-.2-.4-.5-.8-.7-1.2v3h-.2zM31.3 12H30v1.3h1.5v.4h-2v-3.5h1.9v.4H30v1.1h1.4v.3zM32.1 10.2c.2 0 .6-.1.9-.1.5 0 .8.1 1 .3.2.2.3.4.3.7 0 .5-.3.8-.7.9.3.1.4.3.5.7.1.5.2.8.3 1h-.5c-.1-.1-.1-.4-.2-.8-.1-.5-.3-.7-.7-.7h-.4v1.5h-.5v-3.5zm.4 1.6h.5c.5 0 .8-.3.8-.7 0-.5-.3-.7-.8-.7h-.5v1.4zM15 17.8c.2 0 .5-.1.8-.1.4 0 .7.1.9.2.2.1.3.3.3.6s-.2.6-.5.7c.3.1.7.3.7.8 0 .3-.1.5-.3.6-.2.2-.6.3-1.1.3h-.6v-3.1zm.4 1.3h.4c.4 0 .7-.2.7-.5 0-.4-.3-.5-.7-.5h-.4v1zm0 1.5h.3c.4 0 .8-.2.8-.6 0-.4-.4-.6-.8-.6h-.3v1.2zM17.6 19.9c0 .6.4.8.8.8.3 0 .5-.1.6-.1l.1.3c-.1 0-.4.1-.7.1-.7 0-1.1-.5-1.1-1.2s.4-1.2 1.1-1.2c.7 0 .9.7.9 1.1v.2h-1.7zm1.3-.3c0-.3-.1-.7-.6-.7-.4 0-.6.4-.6.7h1.2zM19.6 20.5c.1.1.3.2.5.2.3 0 .4-.2.4-.3 0-.2-.1-.3-.4-.4-.4-.1-.6-.4-.6-.6 0-.4.3-.7.8-.7.2 0 .4.1.6.1l-.1.2c-.1-.1-.3-.1-.5-.1s-.4.1-.4.3c0 .2.1.3.4.4.4.2.6.3.6.7 0 .4-.3.7-.9.7-.3 0-.5-.1-.6-.2l.2-.3zM21.9 18v.7h.6v.3h-.6v1.2c0 .3.1.4.3.4h.2v.3c-.1 0-.2.1-.4.1s-.3-.1-.4-.2c-.1-.1-.2-.3-.2-.6V19H21v-.3h.4v-.5l.5-.2zM23.7 17.8c.2 0 .5-.1.8-.1.4 0 .7.1.9.3.2.2.3.4.3.7 0 .3-.1.5-.2.7-.2.2-.6.3-1 .3h-.3V21h-.4v-3.2zm.5 1.5h.3c.5 0 .8-.2.8-.7 0-.4-.3-.6-.8-.6h-.4v1.3zM26.5 18c0 .1-.1.3-.3.3-.1 0-.3-.1-.3-.3 0-.1.1-.3.3-.3.2 0 .3.1.3.3zm-.5 2.9v-2.3h.4v2.3H26zM28.7 20.8c-.1.1-.4.2-.7.2-.7 0-1.1-.5-1.1-1.2s.5-1.2 1.2-1.2c.2 0 .5.1.6.1l-.1.3c-.1-.1-.3-.1-.5-.1-.5 0-.8.4-.8.9s.3.9.8.9c.2 0 .4-.1.5-.1l.1.2zM29.6 18v.7h.6v.3h-.6v1.2c0 .3.1.4.3.4h.2v.3c-.1 0-.2.1-.4.1s-.3-.1-.4-.2c-.1-.1-.2-.3-.2-.6V19h-.4v-.3h.4v-.5l.5-.2zM32.5 20.3v.6h-.4v-.4c-.1.2-.4.5-.8.5s-.8-.2-.8-1v-1.3h.4V20c0 .4.1.7.5.7.3 0 .5-.2.5-.4V18.7h.4v1.6zM33 19.3v-.7h.4v.4c.1-.3.4-.5.6-.5h.1v.5H34c-.3 0-.5.2-.6.5v1.4H33v-1.6zM34.6 19.9c0 .6.4.8.8.8.3 0 .5-.1.6-.1l.1.3c-.1 0-.4.1-.7.1-.7 0-1.1-.5-1.1-1.2s.4-1.2 1.1-1.2c.7 0 .9.7.9 1.1v.2h-1.7zm1.3-.3c0-.3-.1-.7-.6-.7-.4 0-.6.4-.6.7h1.2z"/><path d="M13.9 27.4c-.2.1-.5.2-.8.2-.9 0-1.6-.6-1.6-1.6s.7-1.7 1.7-1.7c.4 0 .6.1.8.1l-.1.3c-.2-.1-.4-.1-.6-.1-.7 0-1.2.5-1.2 1.3s.4 1.3 1.2 1.3c.3 0 .5-.1.7-.1l-.1.3zM14.6 24.3v3.2h-.4v-3.2h.4zM15.1 27.5v-3.2h.4l1 1.6c.2.4.4.7.6 1v-2.6h.4v3.2H17l-1-1.6c-.2-.4-.4-.7-.6-1.1v2.7h-.3zM19.6 26h-1.2v1.1h1.4v.3H18v-3.2h1.7v.3h-1.3v1h1.2v.5zM22.7 26.1c0-.4-.1-1 0-1.4-.1.4-.2.8-.4 1.2l-.6 1.5h-.3l-.5-1.4c-.2-.4-.3-.9-.4-1.2 0 .4 0 .9-.1 1.4l-.1 1.4h-.4l.2-3.2h.5l.5 1.5c.1.4.2.7.3 1.1.1-.3.2-.7.3-1.1l.6-1.5h.7l.2 3.2h-.4l-.1-1.5zM24.1 26.5l-.3 1h-.4l1.1-3.2h.5l1.1 3.2h-.4l-.3-1h-1.3zm1-.3l-.3-.9c-.1-.2-.1-.4-.2-.6 0 .2-.1.4-.2.6l-.3.9h1zM26.9 27c.2.1.5.2.7.2.4 0 .7-.2.7-.5s-.2-.5-.6-.6c-.5-.2-.8-.5-.8-.9 0-.5.4-.9 1-.9.3 0 .6.1.7.2l-.1.3c-.1-.1-.3-.2-.6-.2-.4 0-.6.3-.6.5 0 .3.2.4.6.6.5.2.8.5.8.9 0 .5-.4.9-1.1.9-.3 0-.6-.1-.8-.2l.1-.3zM31.8 25.9c0 1.1-.7 1.7-1.5 1.7s-1.4-.7-1.4-1.6c0-1 .6-1.7 1.5-1.7.8 0 1.4.7 1.4 1.6zm-2.5.1c0 .7.4 1.3 1 1.3.7 0 1-.6 1-1.3 0-.6-.3-1.3-1-1.3-.7-.1-1 .6-1 1.3zM32.5 24.3v1.9c0 .7.3 1 .7 1 .5 0 .8-.3.8-1v-1.9h.4v1.9c0 1-.5 1.4-1.2 1.4s-1.1-.4-1.1-1.4v-1.9h.4zM35.5 24.7h-1v-.3h2.4v.3h-1v2.8h-.4v-2.8zM37.4 24.3v1.3h1.5v-1.3h.4v3.2h-.4V26h-1.5v1.5H37v-3.2h.4zM17.7 30.1h1.7v.3h-1.3v1.1h1.2v.3h-1.2v1.4h-.4v-3.1zM21.5 31.8h-1.2V33h1.4v.3h-1.8v-3.2h1.7v.3h-1.3v1h1.2v.4z"/><path d="M21.8 32.8c.2.1.5.2.7.2.4 0 .7-.2.7-.5s-.2-.5-.6-.6c-.5-.2-.8-.5-.8-.9 0-.5.4-.9 1-.9.3 0 .6.1.7.2l-.1.3c-.1-.1-.3-.2-.6-.2-.4 0-.6.3-.6.5 0 .3.2.4.6.6.5.2.8.5.8.9 0 .5-.4.9-1.1.9-.3 0-.6-.1-.8-.2l.1-.3zM24.6 30.5h-1v-.3H26v.3h-1v2.8h-.4v-2.8zM26.5 30.1v3.2h-.4v-3.2h.4zM27.7 33.3l-1-3.2h.4l.5 1.6c.1.4.3.8.3 1.2.1-.4.2-.8.4-1.2l.5-1.6h.4l-1.1 3.2h-.4zM29.6 32.3l-.3 1h-.4l1.1-3.2h.5l1.1 3.2h-.4l-.3-1h-1.3zm1.1-.3l-.3-.9c-.1-.2-.1-.4-.2-.6 0 .2-.1.4-.2.6l-.3.9h1zM31.8 30.1h.4V33h1.4v.3h-1.8v-3.2zM21.4 39.1v-.2l.3-.3c.7-.7 1.1-1.1 1.1-1.5 0-.3-.1-.6-.6-.6-.3 0-.5.1-.6.2l-.1-.3c.2-.2.5-.3.8-.3.6 0 .9.4.9.9s-.4 1-1 1.6l-.2.1h1.3v.3h-1.9zM25.5 37.6c0 1-.4 1.5-1 1.5s-1-.5-1-1.5.4-1.5 1-1.5 1 .5 1 1.5zm-1.6 0c0 .8.2 1.2.6 1.2.4 0 .6-.5.6-1.2s-.2-1.2-.6-1.2c-.4 0-.6.4-.6 1.2zM26.5 36.5l-.5.3-.1-.3.6-.3h.3v2.9h-.4v-2.6zM29.4 36.5h-1.1l-.1.8h.2c.2 0 .5 0 .6.2.2.1.4.4.4.8 0 .6-.5 1-1.1 1-.3 0-.6-.1-.7-.2l.1-.3c.1.1.4.2.6.2.4 0 .7-.2.7-.6 0-.4-.3-.6-.8-.6h-.4l.2-1.4h1.4v.1z"/></g></symbol></svg>